<svg width="205" height="62" viewBox="0 0 205 62" fill="none" xmlns="http://www.w3.org/2000/svg">
<path fill-rule="evenodd" clip-rule="evenodd" d="M8.5721 61.3701C4.15382 61.3701 0.572102 57.7884 0.572102 53.3701V9.37012C0.572102 4.95184 4.15382 1.37012 8.5721 1.37012H195.572C199.99 1.37012 203.572 4.95184 203.572 9.37012V53.3701C203.572 57.7884 199.99 61.3701 195.572 61.3701H8.5721Z" fill="white" stroke="#CFCFCF"/>
<path fill-rule="evenodd" clip-rule="evenodd" d="M52.0047 30.005C51.9687 25.7086 55.5206 23.6204 55.6766 23.5244C53.6607 20.5962 50.5408 20.1881 49.4489 20.1521C46.833 19.8761 44.2891 21.7243 42.9572 21.7243C41.6012 21.7243 39.5373 20.1881 37.3294 20.2241C34.4855 20.2721 31.8097 21.9163 30.3577 24.4845C27.3459 29.705 29.5898 37.3857 32.4816 41.6101C33.9336 43.6743 35.6135 45.9905 37.8334 45.9065C39.9933 45.8224 40.8092 44.5263 43.4131 44.5263C46.005 44.5263 46.761 45.9065 49.0169 45.8584C51.3448 45.8224 52.7967 43.7823 54.2006 41.6941C55.8686 39.3299 56.5405 36.9897 56.5645 36.8696C56.5045 36.8456 52.0527 35.1415 52.0047 30.005Z" fill="black"/>
<path fill-rule="evenodd" clip-rule="evenodd" d="M47.7413 17.3842C48.9044 15.9306 49.6958 13.9485 49.4799 11.9302C47.8012 12.0023 45.6909 13.0955 44.4798 14.5251C43.4126 15.7865 42.4534 17.8407 42.6932 19.7749C44.5877 19.919 46.5302 18.8138 47.7413 17.3842Z" fill="black"/>
<path fill-rule="evenodd" clip-rule="evenodd" d="M75.7268 30.2588C75.5707 30.9146 75.2981 32.0257 74.8862 33.5951L73.4102 38.2148H78.1748L76.6745 33.5951C76.4996 33.0552 76.1759 31.8392 75.7862 30.2588H75.7268ZM71.3346 45.6072H71.3339L68.3945 45.6065L74.0942 27.8828H77.6222L83.3458 45.6052L80.3222 45.6065L78.6662 40.3991H72.9062L71.3348 45.6065L71.3346 45.6072Z" fill="black"/>
<path fill-rule="evenodd" clip-rule="evenodd" d="M91.7948 34.831C91.1126 34.831 90.4707 35.0651 89.8868 35.5267C89.3081 36.0067 88.9326 36.6205 88.7708 37.351C88.6818 37.7175 88.6385 38.0001 88.6385 38.215V40.3507C88.6385 41.2741 88.9253 42.0656 89.4908 42.7033C90.0553 43.3399 90.802 43.6627 91.7102 43.6627C92.7639 43.6627 93.6038 43.2469 94.2068 42.427C94.8124 41.5904 95.1068 40.5226 95.1068 39.1627C95.1068 37.9013 94.8319 36.8966 94.2662 36.091C93.6569 35.2549 92.8254 34.831 91.7948 34.831ZM88.6385 50.7907H88.6375H85.7945V37.027C85.7945 35.6541 85.7592 34.2802 85.6865 32.8267H88.1822L88.3388 34.8553H88.3865C89.3319 33.3344 90.7817 32.563 92.6948 32.563C94.1879 32.563 95.4554 33.1647 96.4622 34.3513C97.496 35.5527 97.9985 37.0953 97.9985 39.0673C97.9985 41.2336 97.4011 42.9656 96.2228 44.2153C95.1787 45.3297 93.8543 45.8947 92.2862 45.8947C90.5802 45.8947 89.387 45.3021 88.6385 44.083V50.7897V50.7907Z" fill="black"/>
<path fill-rule="evenodd" clip-rule="evenodd" d="M106.483 34.831C105.801 34.831 105.159 35.0651 104.575 35.5267C104.004 36.0007 103.639 36.5974 103.459 37.351C103.37 37.7175 103.327 38.0001 103.327 38.215V40.3507C103.327 41.2741 103.614 42.0656 104.179 42.7033C104.744 43.3399 105.49 43.6627 106.399 43.6627C107.464 43.6627 108.304 43.2469 108.895 42.427C109.501 41.6076 109.795 40.5399 109.795 39.1627C109.795 37.9013 109.52 36.8966 108.955 36.091C108.345 35.2549 107.514 34.831 106.483 34.831ZM103.327 50.7907H103.326H100.483V37.027C100.483 35.6541 100.448 34.2802 100.375 32.8267H102.871L103.027 34.8553H103.075C104.02 33.3344 105.47 32.563 107.383 32.563C108.876 32.563 110.144 33.1647 111.151 34.3513C112.184 35.5527 112.687 37.0953 112.687 39.0673C112.687 41.2336 112.09 42.9656 110.911 44.2153C109.867 45.3297 108.543 45.8947 106.975 45.8947C105.269 45.8947 104.075 45.3021 103.327 44.083V50.7897V50.7907Z" fill="black"/>
<path fill-rule="evenodd" clip-rule="evenodd" d="M129.122 40.64C129.122 42.152 128.594 43.376 127.55 44.324C126.398 45.356 124.79 45.872 122.726 45.872C120.818 45.872 119.294 45.5 118.142 44.768L118.802 42.404C120.05 43.136 121.418 43.508 122.906 43.508C123.974 43.508 124.814 43.268 125.402 42.788C126.002 42.308 126.302 41.66 126.302 40.856C126.302 40.136 126.05 39.536 125.57 39.044C125.078 38.552 124.262 38.096 123.122 37.676C119.99 36.512 118.442 34.82 118.442 32.6C118.442 31.148 118.994 29.96 120.086 29.024C121.178 28.1 122.63 27.632 124.442 27.632C126.05 27.632 127.394 27.908 128.462 28.472L127.742 30.776C126.734 30.236 125.606 29.96 124.334 29.96C123.338 29.96 122.546 30.212 121.982 30.692C121.514 31.136 121.274 31.664 121.274 32.3C121.274 32.996 121.55 33.584 122.09 34.028C122.558 34.448 123.422 34.904 124.67 35.396C126.194 36.008 127.31 36.728 128.03 37.556C128.762 38.384 129.122 39.416 129.122 40.64Z" fill="black"/>
<path fill-rule="evenodd" clip-rule="evenodd" d="M138.539 34.9615H135.404V41.167C135.404 42.7394 135.957 43.5316 137.062 43.5316C137.566 43.5316 137.986 43.4836 138.323 43.3996L138.407 45.5601C137.842 45.7642 137.11 45.8722 136.197 45.8722C135.068 45.8722 134.203 45.5241 133.567 44.8399C132.93 44.1558 132.618 43.0035 132.618 41.3951V34.9495H130.757V32.825H132.618V30.4844L135.404 29.6442V32.825H138.539V34.9615Z" fill="black"/>
<path fill-rule="evenodd" clip-rule="evenodd" d="M146.37 34.6384C145.225 34.6384 144.349 35.1514 143.767 36.163C143.258 36.9899 143.011 37.9946 143.011 39.2347C143.011 40.4094 143.265 41.4229 143.767 42.247C144.374 43.2581 145.241 43.7707 146.346 43.7707C147.422 43.7707 148.282 43.2499 148.902 42.2227C149.427 41.3446 149.682 40.3474 149.682 39.1744C149.682 37.9956 149.435 37.0106 148.926 36.163C148.331 35.1514 147.471 34.6384 146.37 34.6384ZM146.262 45.8947C144.398 45.8947 142.888 45.2688 141.774 44.0344C140.668 42.8091 140.106 41.2267 140.106 39.331C140.106 37.3645 140.684 35.7294 141.823 34.471C142.973 33.2127 144.536 32.5747 146.467 32.5747C148.334 32.5747 149.856 33.2045 150.99 34.4467C152.073 35.6362 152.623 37.2069 152.623 39.115C152.623 41.0649 152.057 42.6919 150.942 43.9507C149.772 45.2407 148.197 45.8947 146.262 45.8947Z" fill="black"/>
<path fill-rule="evenodd" clip-rule="evenodd" d="M161.865 35.3248C161.589 35.2768 161.288 35.2529 160.964 35.2529C159.968 35.2529 159.188 35.6247 158.648 36.3803C158.18 37.04 157.939 37.8916 157.939 38.8992V45.6041H155.095V36.8481C155.095 35.3728 155.071 34.0294 155.011 32.83H157.483L157.591 35.2768H157.675C157.975 34.4372 158.444 33.7536 159.092 33.2498C159.728 32.794 160.412 32.5661 161.144 32.5661C161.408 32.5661 161.649 32.5901 161.853 32.6141L161.865 35.3248Z" fill="black"/>
<path fill-rule="evenodd" clip-rule="evenodd" d="M169.038 34.5069C168.115 34.5069 167.356 34.8944 166.783 35.6589C166.309 36.2784 166.026 37.0212 165.942 37.8666L171.846 37.8792C171.87 37.0531 171.685 36.3179 171.294 35.6949C170.804 34.9066 170.045 34.5069 169.038 34.5069ZM169.554 45.8352C167.583 45.8352 166.013 45.2456 164.886 44.0829C163.764 42.9243 163.194 41.3458 163.194 39.3912C163.194 37.4755 163.727 35.8564 164.778 34.5789C165.877 33.2173 167.379 32.5269 169.242 32.5269C171.082 32.5269 172.487 33.2172 173.418 34.5789C174.185 35.6988 174.558 37.0177 174.558 38.6109C174.558 39.1193 174.522 39.5514 174.451 39.8952H165.93C165.966 41.1604 166.382 42.1337 167.166 42.7869C167.888 43.3763 168.825 43.6752 169.95 43.6752C171.198 43.6752 172.357 43.4732 173.394 43.0749L173.839 45.0432C172.63 45.5691 171.188 45.8352 169.554 45.8352Z" fill="black"/>
<path fill-rule="evenodd" clip-rule="evenodd" d="M73.0502 13.987V13.987C73.0195 14.1056 72.9864 14.2413 72.9489 14.3949C72.8687 14.7239 72.769 15.1327 72.6299 15.6313L71.9099 17.911H74.2499L73.5182 15.6313C73.4534 15.4254 73.3287 14.9522 73.1401 14.2359L73.0745 13.987H73.0502ZM70.89 21.5477H70.8892L69.4502 21.547L72.2465 12.835H73.9745L76.8055 21.5457L75.3182 21.547L74.5019 18.991H71.6705L70.8902 21.547L70.89 21.5477Z" fill="black"/>
<path fill-rule="evenodd" clip-rule="evenodd" d="M83.8183 15.2584L81.4399 21.5444H80.0826L77.7763 15.2584H79.2778L80.3468 18.5814C80.527 19.1332 80.6832 19.661 80.8033 20.1649H80.8393C80.9474 19.709 81.1036 19.1812 81.2958 18.5814L82.3528 15.2584H83.8183Z" fill="black"/>
<path fill-rule="evenodd" clip-rule="evenodd" d="M88.6865 18.4152C87.098 18.4152 86.3582 18.8193 86.3582 19.6869C86.3582 20.3028 86.7172 20.6706 87.3185 20.6706C88.0728 20.6706 88.6865 20.0948 88.6865 19.3872V18.4152ZM86.8982 21.6912C85.7859 21.6912 84.9785 20.9137 84.9785 19.8426C84.9785 18.3261 86.2826 17.4909 88.6505 17.4909V17.3712C88.6505 16.5506 88.2105 16.1346 87.3428 16.1346C86.7215 16.1346 86.1836 16.2877 85.6985 16.6026L85.4105 15.6909C85.9844 15.3322 86.711 15.1509 87.5705 15.1509C89.211 15.1509 90.0428 16.0269 90.0428 17.7546V20.0712C90.0428 20.7675 90.0722 21.23 90.1382 21.5706L88.8782 21.5472L88.7702 20.8272H88.7342C88.3043 21.4003 87.6863 21.6912 86.8982 21.6912Z" fill="black"/>
<path fill-rule="evenodd" clip-rule="evenodd" d="M93.1503 14.2268C92.6782 14.2268 92.3223 13.8658 92.3223 13.3871C92.3223 12.915 92.6887 12.5591 93.1746 12.5591C93.4216 12.5591 93.6459 12.6497 93.8061 12.8142C93.9536 12.9656 94.0317 13.1691 94.026 13.3871C94.026 13.8893 93.674 14.2268 93.1503 14.2268ZM93.8703 21.5348H93.8693H92.478V15.2591H93.8703V21.5338V21.5348Z" fill="black"/>
<path fill-rule="evenodd" clip-rule="evenodd" d="M96.3584 21.5301H97.7425V12.3781H96.3584V21.5301Z" fill="black"/>
<path fill-rule="evenodd" clip-rule="evenodd" d="M103.482 18.4152C101.894 18.4152 101.154 18.8193 101.154 19.6869C101.154 20.3034 101.513 20.6715 102.114 20.6715C102.869 20.6715 103.482 20.0953 103.482 19.3872V18.4152ZM101.694 21.6912C100.582 21.6912 99.7744 20.9141 99.7744 19.8435C99.7744 18.3264 101.078 17.4909 103.446 17.4909V17.3712C103.446 16.5512 103.006 16.1355 102.139 16.1355C101.516 16.1355 100.978 16.2885 100.494 16.6035L100.206 15.6792C100.78 15.3205 101.507 15.1392 102.366 15.1392C104.007 15.1392 104.839 16.0152 104.839 17.7429V20.0595C104.839 20.7305 104.865 21.2069 104.922 21.5589H103.674V21.5471L103.566 20.8272H103.53C103.1 21.4003 102.482 21.6912 101.694 21.6912Z" fill="black"/>
<path fill-rule="evenodd" clip-rule="evenodd" d="M110.215 16.2309C109.367 16.2309 108.678 16.979 108.678 17.8986V19.0029C108.678 19.8846 109.342 20.5752 110.19 20.5752C111.219 20.5752 111.859 19.7289 111.859 18.3666C111.859 17.0892 111.198 16.2309 110.215 16.2309ZM110.503 21.6912C109.619 21.6912 108.953 21.3157 108.523 20.5752H108.498L108.415 21.5472H107.227C107.259 21.0959 107.274 20.5586 107.274 19.8552V12.3789H108.678V16.1832H108.703C109.126 15.4809 109.782 15.1392 110.707 15.1392C112.219 15.1392 113.275 16.4467 113.275 18.3189C113.275 19.2588 112.995 20.1165 112.487 20.7341C111.979 21.3513 111.275 21.6912 110.503 21.6912Z" fill="black"/>
<path fill-rule="evenodd" clip-rule="evenodd" d="M115.336 21.5301H116.73V12.3781H115.336V21.5301Z" fill="black"/>
<path fill-rule="evenodd" clip-rule="evenodd" d="M121.674 16.0867C120.874 16.0867 120.247 16.7677 120.15 17.7427H123.054C123.053 17.2421 122.925 16.823 122.683 16.5317C122.44 16.2406 122.092 16.0867 121.674 16.0867ZM121.926 21.655C119.994 21.655 118.794 20.4411 118.794 18.487C118.794 17.546 119.084 16.6914 119.611 16.0807C120.157 15.4488 120.903 15.1147 121.77 15.1147C123.359 15.1147 124.386 16.2876 124.386 18.1027C124.386 18.3138 124.379 18.5544 124.326 18.739H120.138C120.161 19.8856 120.919 20.5984 122.118 20.5984C122.718 20.5984 123.287 20.4976 123.81 20.2987L124.026 21.2707C123.448 21.5297 122.762 21.655 121.926 21.655Z" fill="black"/>
<path fill-rule="evenodd" clip-rule="evenodd" d="M132.846 16.1589C131.856 16.1589 131.19 17.0656 131.19 18.4152C131.19 19.7293 131.866 20.6472 132.833 20.6472C133.786 20.6472 134.478 19.6933 134.478 18.3792C134.466 17.0719 133.795 16.1589 132.846 16.1589ZM132.786 21.6912C131.896 21.6912 131.135 21.3742 130.585 20.7746C130.054 20.1951 129.762 19.3741 129.762 18.4629C129.762 16.4749 131.02 15.1392 132.894 15.1392C134.702 15.1392 135.918 16.4315 135.918 18.3549C135.918 19.3207 135.62 20.1513 135.058 20.7567C134.49 21.368 133.705 21.6912 132.786 21.6912Z" fill="black"/>
<path fill-rule="evenodd" clip-rule="evenodd" d="M143.416 21.544H142.025V17.932C142.025 16.816 141.593 16.264 140.754 16.264C139.926 16.264 139.363 16.972 139.363 17.8V21.532H137.972V17.056C137.972 16.504 137.96 15.904 137.924 15.256H139.147L139.207 16.228H139.243C139.615 15.556 140.382 15.124 141.233 15.124C142.552 15.124 143.416 16.132 143.416 17.776V21.544Z" fill="black"/>
<path fill-rule="evenodd" clip-rule="evenodd" d="M152.552 16.3143H151.014V19.3623C151.014 20.1423 151.29 20.5263 151.831 20.5263C152.071 20.5263 152.288 20.5023 152.456 20.4663L152.492 21.5223C152.216 21.6303 151.855 21.6783 151.41 21.6783C150.305 21.6783 149.655 21.0663 149.655 19.4823V16.3143H148.742V15.2703H149.655V14.1183L151.026 13.6983V15.2583H152.564V16.3143" fill="black"/>
<path fill-rule="evenodd" clip-rule="evenodd" d="M159.944 21.5441H158.553V17.9568C158.553 16.8291 158.121 16.2652 157.281 16.2652C156.561 16.2652 155.889 16.7571 155.889 17.7529V21.5321H154.498V12.3781H155.889V16.1452H155.913C156.357 15.4614 156.981 15.1255 157.797 15.1255C159.128 15.1255 159.944 16.1572 159.944 17.8009V21.5441Z" fill="black"/>
<path fill-rule="evenodd" clip-rule="evenodd" d="M164.418 16.0867C163.619 16.0867 162.978 16.7832 162.894 17.7427H165.798C165.797 17.2421 165.669 16.823 165.427 16.5317C165.185 16.2406 164.836 16.0867 164.418 16.0867ZM164.67 21.655C162.738 21.655 161.538 20.4411 161.538 18.487C161.538 17.546 161.828 16.6914 162.356 16.0807C162.901 15.4488 163.648 15.1147 164.514 15.1147C166.103 15.1147 167.13 16.2876 167.13 18.1027C167.13 18.3138 167.123 18.5544 167.07 18.739H162.882C162.905 19.8856 163.664 20.5984 164.862 20.5984C165.462 20.5984 166.031 20.4976 166.554 20.2987L166.77 21.2707C166.193 21.5297 165.506 21.655 164.67 21.655Z" fill="black"/>
</svg>
