<svg width="13" height="25" viewBox="0 0 13 25" fill="none" xmlns="http://www.w3.org/2000/svg">
<path fill-rule="evenodd" clip-rule="evenodd" d="M0.387343 13.578H3.01884V24.4085C3.01884 24.6223 3.19215 24.7956 3.40603 24.7956H7.86796C8.08184 24.7956 8.25512 24.6223 8.25512 24.4085V13.629H11.2804C11.4771 13.629 11.6425 13.4814 11.665 13.2861L12.1245 9.29888C12.1371 9.18919 12.1024 9.07932 12.0289 8.997C11.9555 8.91464 11.8503 8.86749 11.7399 8.86749H8.25531V6.36808C8.25531 5.61466 8.66112 5.23258 9.46159 5.23258C9.57563 5.23258 11.7399 5.23258 11.7399 5.23258C11.9538 5.23258 12.1271 5.05924 12.1271 4.84549V1.18554C12.1271 0.971701 11.9538 0.798452 11.7399 0.798452H8.6C8.57787 0.797372 8.52866 0.795592 8.45616 0.795592C7.91138 0.795592 6.01771 0.902511 4.52182 2.27825C2.86436 3.80281 3.09481 5.62817 3.14985 5.94467V8.86741H0.387273C0.17334 8.86741 6.00175e-05 9.04066 6.00175e-05 9.2545V13.1908C0.000120035 13.4046 0.1734 13.578 0.387323 13.578L0.387343 13.578Z" fill="black"/>
</svg>
