<svg width="204" height="61" viewBox="0 0 204 61" fill="none" xmlns="http://www.w3.org/2000/svg">
<path fill-rule="evenodd" clip-rule="evenodd" d="M195.572 60.6209H8.0721C3.8721 60.6209 0.572102 57.3209 0.572102 53.1209V8.12086C0.572102 3.92086 3.8721 0.620858 8.0721 0.620858H195.572C199.772 0.620858 203.072 3.92086 203.072 8.12086V53.1209C203.072 57.3209 199.772 60.6209 195.572 60.6209Z" fill="black"/>
<path fill-rule="evenodd" clip-rule="evenodd" d="M113.972 20.1209V11.1209H115.322L119.672 18.1709V11.1209H120.872V20.1209H119.672L115.022 12.7709V20.1209H113.972Z" fill="white" stroke="white" stroke-width="0.054"/>
<path fill-rule="evenodd" clip-rule="evenodd" d="M104.645 18.8368C105.402 19.5935 106.537 20.1611 107.672 20.1611C108.807 20.1611 109.943 19.7827 110.699 18.8368C111.456 18.0802 112.024 16.9451 112.024 15.6209C112.024 14.2967 111.645 13.1617 110.699 12.405C109.943 11.6483 108.807 11.0808 107.672 11.0808C106.537 11.0808 105.402 11.4591 104.645 12.405C103.888 13.1617 103.32 14.2967 103.32 15.6209C103.32 16.9451 103.699 18.0802 104.645 18.8368Z" fill="white" stroke="white" stroke-width="0.054"/>
<path fill-rule="evenodd" clip-rule="evenodd" d="M96.7215 20.1209H95.5215V12.1709H92.9715V11.1209H99.1215V12.1709H96.5715V20.1209H96.7215Z" fill="white" stroke="white" stroke-width="0.054"/>
<path fill-rule="evenodd" clip-rule="evenodd" d="M90.4217 20.1209H91.6217V11.1209H90.4217V20.1209Z" fill="white" stroke="white" stroke-width="0.054"/>
<path fill-rule="evenodd" clip-rule="evenodd" d="M83.5213 20.1209H82.3213V12.1709H79.7713V11.1209H86.0713V12.1709H83.5213V20.1209Z" fill="white" stroke="white" stroke-width="0.054"/>
<path fill-rule="evenodd" clip-rule="evenodd" d="M78.5721 12.1709H74.5221V15.0209H78.2721V16.0709H74.5221V18.9209H78.5721V20.1209H73.3221V11.1209H78.5721V12.1709Z" fill="white" stroke="white" stroke-width="0.054"/>
<path fill-rule="evenodd" clip-rule="evenodd" d="M71.6717 15.921C71.6717 17.121 71.3717 18.171 70.6217 18.921C69.7217 19.821 68.6717 20.271 67.3217 20.271C65.9717 20.271 64.9217 19.821 64.0217 18.921C63.1217 18.021 62.6717 16.971 62.6717 15.621C62.6717 14.271 63.1217 13.221 64.0217 12.321C64.9217 11.421 65.9717 10.971 67.3217 10.971C67.9217 10.971 68.5217 11.121 69.1217 11.421C69.7217 11.721 70.1717 12.021 70.4717 12.471L69.7217 13.221C69.1217 12.471 68.3717 12.171 67.3217 12.171C66.4217 12.171 65.5217 12.471 64.9217 13.221C64.1717 13.821 63.8717 14.721 63.8717 15.771C63.8717 16.821 64.1717 17.721 64.9217 18.321C65.6717 18.921 66.4217 19.371 67.3217 19.371C68.3717 19.371 69.1217 19.071 69.8717 18.321C70.3217 17.871 70.6217 17.271 70.6217 16.521H67.3217V15.321H71.6717V15.921Z" fill="white" stroke="white" stroke-width="0.054"/>
<path fill-rule="evenodd" clip-rule="evenodd" d="M105.807 17.6105C106.274 18.0773 106.975 18.4275 107.676 18.4275C108.378 18.4275 109.079 18.1941 109.546 17.6105C110.014 17.1436 110.364 16.4433 110.364 15.6263C110.364 14.8093 110.13 14.109 109.546 13.6421C109.079 13.1752 108.378 12.8251 107.676 12.8251C106.975 12.8251 106.274 13.0585 105.807 13.6421C105.339 14.109 104.989 14.8093 104.989 15.6263C104.989 16.4433 105.223 17.1436 105.807 17.6105Z" fill="black"/>
<path fill-rule="evenodd" clip-rule="evenodd" d="M127.326 45.6254H127.325H124.477V26.8757H127.326V45.6244V45.6254ZM149.376 29.4254V35.8757H153.426C154.917 35.8757 156.529 34.7421 156.727 32.5754C156.727 31.8662 156.404 31.0882 155.864 30.4941C155.238 29.8049 154.372 29.4254 153.426 29.4254H149.376ZM149.376 45.6254H149.375H146.527V26.8757H153.277C154.851 26.8757 156.402 27.4498 157.533 28.4507C158.754 29.5317 159.427 31.05 159.427 32.7257C159.427 34.4014 158.754 35.9197 157.533 37.0007C156.402 38.0016 154.851 38.5757 153.277 38.5757H149.376V45.6244L149.376 45.6254ZM163.776 45.6254H163.775H160.927V26.8757H163.776V45.6244V45.6254ZM171.127 39.9257C169.676 39.9257 168.127 40.4378 168.127 41.8751C168.127 43.0861 169.472 43.5257 170.377 43.5257C171.973 43.5257 173.391 42.2357 173.676 40.5251C173.601 40.4949 173.527 40.4647 173.454 40.4349C172.812 40.173 172.206 39.9257 171.127 39.9257ZM170.227 45.9251C169.034 45.9251 167.859 45.5083 167.001 44.7815C166.082 44.0026 165.576 42.9173 165.576 41.7257C165.576 40.4663 166.16 39.39 167.264 38.613C168.246 37.9218 169.599 37.5254 170.976 37.5254C172.166 37.5254 173.359 37.9638 173.827 38.2751L173.827 38.1257C173.755 37.4116 173.411 36.802 172.833 36.3629C172.291 35.9518 171.578 35.7254 170.827 35.7254C169.597 35.7254 168.81 36.1417 168.276 37.0754L165.727 36.0251C166.078 35.1126 166.758 34.3676 167.695 33.8694C168.549 33.4156 169.58 33.1757 170.677 33.1757C172.26 33.1757 173.667 33.6554 174.745 34.5629C175.865 35.5054 176.533 36.8411 176.677 38.4254V45.6254H173.977L173.977 44.1251H173.827C173.068 45.0357 172.165 45.9251 170.227 45.9251H170.227ZM72.2769 46.0754C66.829 46.0754 62.2266 41.5417 62.2266 36.1754C62.2266 30.809 66.829 26.2754 72.2769 26.2754C74.8554 26.2754 77.0003 27.1333 79.0269 28.9754L77.0766 30.9257C75.5984 29.6316 73.9334 28.9754 72.1266 28.9754C70.2331 28.9754 68.462 29.7145 67.1393 31.0567C65.8093 32.4063 65.0769 34.2241 65.0769 36.1754C65.0769 38.1439 65.7893 39.9618 67.083 41.2941C68.3861 42.6363 70.1773 43.3754 72.1266 43.3754C74.1451 43.3754 75.7642 42.7374 77.0766 41.4251C77.8921 40.6096 78.4389 39.3522 78.5769 37.9754H72.1266V35.2754H81.4263C81.5766 35.7254 81.5766 36.3353 81.5766 36.9251C81.5766 38.0976 81.3427 41.0587 79.1763 43.2251C77.3569 45.1963 75.2291 46.0754 72.2769 46.0754ZM88.7766 35.7254C86.7579 35.7254 85.1766 37.4383 85.1766 39.6251C85.1766 41.8124 86.7579 43.5257 88.7766 43.5257C90.7953 43.5257 92.3766 41.8124 92.3766 39.6251C92.3766 37.0649 90.5655 35.7254 88.7766 35.7254ZM88.7766 46.2257C87.0355 46.2257 85.4106 45.5598 84.2014 44.3505C82.9922 43.1413 82.3263 41.5165 82.3263 39.7754C82.3263 36.0981 85.0993 33.3251 88.7766 33.3251C90.5523 33.3251 92.1771 33.9511 93.3517 35.0879C94.5784 36.2751 95.2269 37.896 95.2269 39.7754C95.2269 43.4527 92.4538 46.2257 88.7765 46.2257L88.7766 46.2257ZM102.727 35.7254C100.708 35.7254 99.1266 37.4383 99.1266 39.6251C99.1266 41.8124 100.708 43.5257 102.727 43.5257C104.745 43.5257 106.327 41.8124 106.327 39.6251C106.327 37.0649 104.516 35.7254 102.727 35.7254ZM102.727 46.2257C100.985 46.2257 99.3606 45.5598 98.1514 44.3505C96.9422 43.1414 96.2763 41.5165 96.2763 39.7754C96.2763 36.0981 99.0493 33.3251 102.727 33.3251C104.502 33.3251 106.127 33.9511 107.302 35.0879C108.528 36.2751 109.177 37.896 109.177 39.7754C109.177 43.4527 106.404 46.2257 102.727 46.2257V46.2257ZM134.827 35.7254C133.478 35.7254 131.527 37.0609 131.527 39.4757L137.226 37.0754C136.924 36.3189 135.87 35.7254 134.827 35.7254ZM135.127 46.2257C133.395 46.2257 131.797 45.5598 130.627 44.3505C129.466 43.151 128.827 41.5262 128.827 39.7754C128.827 37.9284 129.452 36.2637 130.589 35.0879C131.688 33.9511 133.193 33.3251 134.827 33.3251C138.114 33.3251 139.621 35.8626 140.227 37.3751L140.527 38.1257L131.977 41.7257C132.745 43.1099 133.658 43.6751 135.127 43.6751C136.434 43.6751 137.376 43.1368 138.277 41.8751L140.376 43.3754C139.772 44.4349 137.985 46.2257 135.127 46.2257V46.2257ZM181.477 51.3251H181.476H178.626L181.477 45.0251L176.527 33.6257H179.526L182.827 41.7257H182.977L186.127 33.6257H189.127L181.477 51.3245L181.477 51.3251ZM116.677 35.7254C114.658 35.7254 113.077 37.4383 113.077 39.6251C113.077 41.8124 114.658 43.5257 116.677 43.5257C118.643 43.5257 120.126 41.8488 120.126 39.6251C120.126 37.4019 118.643 35.7254 116.677 35.7254ZM116.677 51.6257C112.969 51.6257 111.377 48.7552 110.977 47.8754L113.376 46.8251C113.689 47.9162 114.898 49.0751 116.526 49.0751C118.687 49.0751 119.977 47.6734 119.977 45.3257V44.4257H119.827C119.273 45.1172 118.076 45.9251 116.526 45.9251C114.906 45.9251 113.375 45.2858 112.214 44.1251C111.029 42.9401 110.377 41.342 110.377 39.6251C110.377 37.9161 111.049 36.2914 112.27 35.0504C113.442 33.859 114.994 33.1757 116.526 33.1757C118.222 33.1757 119.416 34.1151 119.977 34.6751L119.977 33.6257H122.677V45.0251C122.677 47.2227 122.084 48.9198 120.914 50.0692C119.878 51.0875 118.413 51.6257 116.677 51.6257H116.677Z" fill="white"/>
<path fill-rule="evenodd" clip-rule="evenodd" d="M18.5721 14.2169V47.3669C18.5721 48.2672 18.8721 49.0169 19.3221 49.4669L19.4721 49.6172L38.0721 31.0172V30.7169L19.1721 12.1172C18.7221 12.5669 18.5721 13.3169 18.5721 14.2169Z" fill="#32BBFF"/>
<path fill-rule="evenodd" clip-rule="evenodd" d="M37.9217 30.7163V31.1663L44.0737 37.3165L51.5762 33.2664C53.6769 32.0663 53.6769 30.1163 51.5762 28.916L44.2238 24.7162L44.0737 24.5659L37.9217 30.7163Z" fill="#FFD500"/>
<path fill-rule="evenodd" clip-rule="evenodd" d="M19.1717 49.6195C19.9217 50.3693 20.9717 50.3693 22.3217 49.7692L44.2217 37.1674L37.9217 30.8665L19.1717 49.6195Z" fill="url(#paint0_linear_3_7676)"/>
<path fill-rule="evenodd" clip-rule="evenodd" d="M19.1717 12.2639L37.9217 30.8667L44.2217 24.5657L22.3217 12.1141C21.7133 11.776 21.1661 11.6209 20.6798 11.6209C20.0864 11.6206 19.5839 11.8516 19.1717 12.2639Z" fill="#29CC5E"/>
<defs>
<linearGradient id="paint0_linear_3_7676" x1="18.6884" y1="21.1296" x2="-5.25459" y2="61.3273" gradientUnits="userSpaceOnUse">
<stop stop-color="#FF3A44"/>
<stop offset="1" stop-color="#C31162"/>
</linearGradient>
</defs>
</svg>
