<svg width="880" height="581" viewBox="0 0 880 581" fill="none" xmlns="http://www.w3.org/2000/svg">
<path fill-rule="evenodd" clip-rule="evenodd" d="M106 26.5C106 11.8645 118.088 0 133 0C147.912 0 160 11.8645 160 26.5C160 41.1356 147.912 53 133 53C118.088 53 106 41.1356 106 26.5Z" fill="#F12E41"/>
<path fill-rule="evenodd" clip-rule="evenodd" d="M826 210.5C826 195.864 838.088 184 853 184C867.912 184 880 195.864 880 210.5C880 225.136 867.912 237 853 237C838.088 237 826 225.136 826 210.5Z" fill="#F12E41"/>
<path fill-rule="evenodd" clip-rule="evenodd" d="M0 496.5C0 456.459 32.4594 424 72.5 424C112.541 424 145 456.459 145 496.5C145 536.541 112.541 569 72.5 569C32.4594 569 0 536.541 0 496.5Z" fill="#F12E41"/>
<path fill-rule="evenodd" clip-rule="evenodd" d="M730 104.5C730 73.8482 754.848 49 785.5 49C816.152 49 841 73.8482 841 104.5C841 135.152 816.152 160 785.5 160C754.848 160 730 135.152 730 104.5Z" fill="#F12E41"/>
</svg>
