<svg width="22" height="22" viewBox="0 0 22 22" fill="none" xmlns="http://www.w3.org/2000/svg">
<path fill-rule="evenodd" clip-rule="evenodd" d="M19.3919 17.2833C19.0173 18.2102 18.2921 18.9243 17.346 19.2979C15.9292 19.8512 12.5674 19.7235 11.0017 19.7235C9.43603 19.7235 6.06937 19.8465 4.65739 19.2979C3.71607 18.929 2.99087 18.2149 2.61146 17.2833C2.04955 15.8882 2.17922 12.5778 2.17922 11.0362C2.17922 9.49449 2.05435 6.17939 2.61146 4.78904C2.98607 3.86214 3.71127 3.14804 4.65739 2.77445C6.07417 2.22115 9.43603 2.34883 11.0017 2.34883C12.5674 2.34883 15.934 2.22587 17.346 2.77445C18.2873 3.14332 19.0125 3.85741 19.3919 4.78904C19.9538 6.18412 19.8242 9.49449 19.8242 11.0362C19.8242 12.5778 19.9538 15.8929 19.3919 17.2833ZM21.6876 6.66649C21.606 4.96874 21.2121 3.46489 19.949 2.22587C18.6907 0.986846 17.1635 0.599056 15.4394 0.513936C13.6624 0.414626 8.33623 0.414626 6.55925 0.513936C4.8399 0.594326 3.31266 0.982116 2.04956 2.22114C0.786457 3.46016 0.397447 4.96401 0.310997 6.66176C0.210137 8.41153 0.210137 13.6561 0.310997 15.4058C0.392647 17.1036 0.786457 18.6074 2.04956 19.8465C3.31266 21.0855 4.8351 21.4733 6.55925 21.5584C8.33623 21.6577 13.6624 21.6577 15.4394 21.5584C17.1635 21.478 18.6908 21.0902 19.949 19.8465C21.2073 18.6074 21.6012 17.1036 21.6876 15.4058C21.7885 13.6561 21.7885 8.41624 21.6876 6.66648V6.66649ZM18.0328 5.38017C18.0328 6.08481 17.4565 6.64757 16.7457 6.64757C16.0301 6.64757 15.4586 6.08008 15.4586 5.38017C15.4586 4.68027 16.0349 4.11277 16.7457 4.11277C17.4565 4.11277 18.0328 4.68026 18.0328 5.38017ZM11.0017 14.5688C9.02782 14.5688 7.41413 12.9845 7.41413 11.0362C7.41413 9.08779 9.02302 7.50354 11.0017 7.50354C12.9804 7.50354 14.5893 9.08779 14.5893 11.0362C14.5893 12.9846 12.9756 14.5688 11.0017 14.5688ZM11.0017 5.60244C7.94722 5.60244 5.48346 8.02846 5.48346 11.0362C5.48346 14.0439 7.94722 16.4699 11.0017 16.4699C14.0562 16.4699 16.52 14.0439 16.52 11.0362C16.52 8.02847 14.0562 5.60244 11.0017 5.60244Z" fill="black"/>
</svg>
