<svg width="63" height="63" viewBox="0 0 63 63" fill="none" xmlns="http://www.w3.org/2000/svg">
<path fill-rule="evenodd" clip-rule="evenodd" d="M49.3625 58.2002H53.8126V62.6502H49.3625V58.2002ZM58.2626 58.2002H62.7127V62.6502H58.2626V58.2002ZM58.2626 35.95H62.7127V53.7501H49.3625V49.3001H44.9125V62.6502H36.0124V35.95H49.3625V40.4H58.2626V35.95ZM9.31219 44.85H18.2123V53.7501H9.31219V44.85ZM0.412109 62.6502H27.1124V35.95H0.412109V62.6502ZM53.8126 18.1498H44.9125V9.24969H53.8126V18.1498ZM36.0124 0.349609V27.0499H62.7127V0.349609H36.0124ZM9.31219 9.2497H18.2123V18.1498H9.31219V9.2497ZM0.412109 27.0499H27.1124V0.349609H0.412109V27.0499Z" fill="#F12E41"/>
</svg>
