<svg width="50" height="81" viewBox="0 0 50 81" fill="none" xmlns="http://www.w3.org/2000/svg">
<path fill-rule="evenodd" clip-rule="evenodd" d="M19.9493 0.757326V10.6807H12.5061C5.7576 10.6807 0.100747 16.337 0.100747 23.0849V28.0466C0.100747 34.7945 4.46744 40.3516 10.9182 42.0385L36.3244 48.588C37.7138 48.9849 39.6987 51.4658 39.6987 52.9543V57.9159C39.6987 59.3052 38.607 60.3968 37.2176 60.3968H12.4069C11.216 60.3968 10.3228 59.9999 9.92581 59.8014V50.4734H0.00151657V60.3968C0.00151657 63.7707 1.98638 66.6485 4.36821 68.137C6.65079 69.7247 9.52884 70.3202 12.4069 70.3202H19.8501V80.2435H29.7744V70.3202H37.2176C44.0654 70.3202 49.623 64.7631 49.623 57.9159V52.9543C49.623 46.2064 45.2563 40.6493 38.8055 38.9623L13.3993 32.4129C12.0099 32.0159 10.025 29.5351 10.025 28.0466V23.0849C10.025 21.6956 11.1167 20.6041 12.5061 20.6041H37.3169C38.4085 20.6041 39.401 21.001 39.7979 21.1995V30.5274H49.7222V20.6041C49.7222 17.2301 47.7374 14.3523 45.3555 12.8638C43.073 11.2761 40.1949 10.6807 37.3169 10.6807H29.8736V0.757336H19.9493V0.757326Z" fill="#F12E41"/>
</svg>
