<svg width="58" height="63" viewBox="0 0 58 63" fill="none" xmlns="http://www.w3.org/2000/svg">
<path fill-rule="evenodd" clip-rule="evenodd" d="M48.4559 24.5776C46.5522 24.5776 44.9947 23.0201 44.9947 21.1164C44.9947 19.2127 46.5522 17.6552 48.4559 17.6552C50.3595 17.6552 51.917 19.2127 51.917 21.1164C51.917 23.0201 50.3595 24.5776 48.4559 24.5776H48.4559ZM27.689 24.5776H6.92218V7.27187H27.689V24.5776ZM54.5821 14.9902L54.634 14.9383L41.7413 2.08008L38.0725 5.74892L45.3755 13.052C42.122 14.298 39.8031 17.4303 39.8031 21.1164C39.8031 25.8928 43.6796 29.7693 48.456 29.7693C49.6847 29.7693 50.8614 29.5097 51.9171 29.0425V53.9973C51.9171 55.901 50.3596 57.4585 48.456 57.4585C46.5523 57.4585 44.9948 55.901 44.9948 53.9973V38.4222C44.9948 34.5976 41.8971 31.4999 38.0725 31.4999H34.6114V7.27188C34.6114 3.44729 31.5136 0.349609 27.6891 0.349609H6.92226C3.09767 0.349609 0 3.44736 0 7.27188V62.6502H34.6115V36.6917H39.8032V53.9973C39.8032 58.7737 43.6797 62.6502 48.4561 62.6502C53.2324 62.6502 57.1089 58.7737 57.1089 53.9973V21.1165C57.1089 18.7283 56.1398 16.5651 54.5823 14.9903L54.5821 14.9902Z" fill="#F12E41"/>
</svg>
