<svg width="47" height="32" viewBox="0 0 47 32" fill="none" xmlns="http://www.w3.org/2000/svg">
<path d="M45.8304 3.87361L34.0287 15.8946C33.941 15.9823 33.941 16.114 34.0287 16.2017L42.2877 24.9981C42.8471 25.5575 42.8471 26.4568 42.2877 27.0162C42.0135 27.2904 41.6406 27.433 41.2786 27.433C40.9167 27.433 40.5438 27.2904 40.2696 27.0162L32.0435 18.2527C31.9558 18.165 31.8132 18.165 31.7254 18.2527L29.7183 20.2928C28.0402 21.9928 25.8137 22.9361 23.4226 22.9471C20.9987 22.958 18.6954 21.938 16.9953 20.216L15.065 18.2527C14.9772 18.165 14.8346 18.165 14.7469 18.2527L6.52085 27.0162C6.24665 27.2904 5.87374 27.433 5.51179 27.433C5.14985 27.433 4.77693 27.2904 4.50273 27.0162C3.94336 26.4568 3.94336 25.5575 4.50273 24.9981L12.7617 16.2017C12.8385 16.114 12.8385 15.9823 12.7617 15.8946L0.949086 3.87361C0.806501 3.73102 0.576172 3.82974 0.576172 4.02716V28.0801C0.576172 30.0105 2.15557 31.5899 4.08595 31.5899H42.6935C44.6239 31.5899 46.2033 30.0105 46.2033 28.0801V4.02716C46.2033 3.82974 45.962 3.74199 45.8304 3.87361Z" fill="#FF4159"/>
<path d="M23.3897 20.0845C25.013 20.0845 26.5376 19.4483 27.6782 18.2857L44.8871 0.769716C44.2839 0.287122 43.5381 0.00195312 42.7155 0.00195312H4.075C3.25239 0.00195312 2.49559 0.287122 1.90332 0.769716L19.1122 18.2857C20.2419 19.4373 21.7665 20.0845 23.3897 20.0845Z" fill="#FF4159"/>
</svg>
