<svg width="999" height="640" viewBox="0 0 999 640" fill="none" xmlns="http://www.w3.org/2000/svg">
<mask id="mask0_2_2" style="mask-type:alpha" maskUnits="userSpaceOnUse" x="0" y="0" width="999" height="640">
<path fill-rule="evenodd" clip-rule="evenodd" d="M0 639.5V0.5H999V639.5H0Z" fill="#D9D9D9"/>
</mask>
<g mask="url(#mask0_2_2)">
<path opacity="0.3" fill-rule="evenodd" clip-rule="evenodd" d="M32 308C32 50.083 241.083 -159 499 -159C756.917 -159 966 50.083 966 308C966 565.917 756.917 775 499 775C241.083 775 32 565.917 32 308Z" fill="url(#paint0_linear_2_2)"/>
<path fill-rule="evenodd" clip-rule="evenodd" d="M141 308C141 110.282 301.282 -50 499 -50C696.718 -50 857 110.282 857 308C857 505.718 696.718 666 499 666C301.282 666 141 505.718 141 308Z" fill="url(#paint1_linear_2_2)"/>
</g>
<defs>
<linearGradient id="paint0_linear_2_2" x1="199.04" y1="-159" x2="199.04" y2="440.92" gradientUnits="userSpaceOnUse">
<stop stop-color="#FF4159"/>
<stop offset="1" stop-color="#CC3B3A"/>
</linearGradient>
<linearGradient id="paint1_linear_2_2" x1="269.05" y1="-50" x2="269.05" y2="409.9" gradientUnits="userSpaceOnUse">
<stop stop-color="#FF4159"/>
<stop offset="1" stop-color="#CC3B3A"/>
</linearGradient>
</defs>
</svg>
