<svg width="388" height="792" viewBox="0 0 388 792" fill="none" xmlns="http://www.w3.org/2000/svg">
<path fill-rule="evenodd" clip-rule="evenodd" d="M1.72202 256.232H4.83003C5.25727 256.232 5.6063 256.581 5.6063 257.008V307.836C5.6063 308.263 5.25727 308.612 4.83003 308.612H1.72202C1.29576 308.612 0.945749 308.263 0.945749 307.836V257.008C0.945749 256.581 1.29576 256.232 1.72202 256.232Z" fill="#162735"/>
<path fill-rule="evenodd" clip-rule="evenodd" d="M1.33883 129.176H4.44079C4.75099 129.176 5.02241 129.448 5.02241 129.758V154.205C5.02241 154.516 4.75099 154.787 4.44079 154.787H1.33883C1.02863 154.787 0.757204 154.516 0.757204 154.205V129.758C0.757204 129.448 1.02862 129.176 1.33883 129.176Z" stroke="#7690A2"/>
<path fill-rule="evenodd" clip-rule="evenodd" d="M1.72449 184.268H4.82646C5.13665 184.268 5.40807 184.539 5.40807 184.85V235.67C5.40807 235.98 5.13665 236.252 4.82646 236.252H1.72449C1.4143 236.252 1.14287 235.98 1.14287 235.67V184.85C1.14287 184.539 1.41429 184.268 1.72449 184.268Z" stroke="#7690A2"/>
<path fill-rule="evenodd" clip-rule="evenodd" d="M1.33451 128.988H4.44138C4.86755 128.988 5.21748 129.337 5.21748 129.763V154.199C5.21748 154.625 4.86755 154.974 4.44138 154.974H1.33451C0.907851 154.974 0.5589 154.625 0.5589 154.199V129.763C0.5589 129.337 0.907851 128.988 1.33451 128.988Z" fill="#162735"/>
<path fill-rule="evenodd" clip-rule="evenodd" d="M1.72202 184.079H4.83003C5.25727 184.079 5.6063 184.429 5.6063 184.856V235.673C5.6063 236.1 5.25727 236.449 4.83003 236.449H1.72202C1.29576 236.449 0.945749 236.1 0.945749 235.673V184.856C0.945749 184.429 1.29576 184.079 1.72202 184.079Z" fill="#162735"/>
<path fill-rule="evenodd" clip-rule="evenodd" d="M1.72321 256.624C1.49043 256.624 1.33525 256.779 1.33525 257.012V307.835C1.33525 308.068 1.49044 308.223 1.72321 308.223H4.82692C5.0597 308.223 5.21488 308.068 5.21488 307.835V257.012C5.21488 256.779 5.0597 256.624 4.82692 256.624H1.72321ZM4.82691 308.611H1.7232C1.29644 308.611 0.947266 308.262 0.947266 307.835V257.012C0.947266 256.585 1.29644 256.236 1.7232 256.236H4.82691C5.25367 256.236 5.60284 256.585 5.60284 257.012V307.835C5.60284 308.262 5.25367 308.611 4.82691 308.611Z" fill="#7690A2"/>
<path fill-rule="evenodd" clip-rule="evenodd" d="M1.72321 184.463C1.49043 184.463 1.33525 184.618 1.33525 184.851V235.674C1.33525 235.907 1.49044 236.062 1.72321 236.062H4.82692C5.0597 236.062 5.21488 235.907 5.21488 235.674V184.851C5.21488 184.618 5.0597 184.463 4.82692 184.463H1.72321ZM4.82691 236.45H1.7232C1.29644 236.45 0.947266 236.101 0.947266 235.674V184.851C0.947266 184.424 1.29644 184.075 1.7232 184.075H4.82691C5.25367 184.075 5.60284 184.424 5.60284 184.851V235.674C5.60284 236.101 5.25367 236.45 4.82691 236.45Z" fill="#7690A2"/>
<path fill-rule="evenodd" clip-rule="evenodd" d="M1.3355 129.372C1.10272 129.372 0.94754 129.528 0.94754 129.76V154.202C0.94754 154.435 1.10273 154.59 1.3355 154.59H4.82717C5.05995 154.59 5.21513 154.435 5.21513 154.202V129.76C5.21513 129.528 5.05994 129.372 4.82717 129.372H1.3355ZM4.82717 154.978H1.3355C0.90874 154.978 0.55957 154.629 0.55957 154.202V129.76C0.55957 129.334 0.90874 128.984 1.3355 128.984H4.82717C5.25393 128.984 5.6031 129.334 5.6031 129.76V154.202C5.6031 154.629 5.25393 154.978 4.82717 154.978Z" fill="#7690A2"/>
<path fill-rule="evenodd" clip-rule="evenodd" d="M381.026 194.936H386.092C386.788 194.936 387.358 195.629 387.358 196.476V297.373C387.358 298.22 386.788 298.913 386.092 298.913H381.026C380.329 298.913 379.76 298.22 379.76 297.373V196.476C379.76 195.629 380.329 194.936 381.026 194.936Z" fill="#142A37"/>
<path fill-rule="evenodd" clip-rule="evenodd" d="M381.027 195.709C380.647 195.709 380.394 196.017 380.394 196.479V297.372C380.394 297.834 380.647 298.143 381.027 298.143H386.093C386.473 298.143 386.726 297.834 386.726 297.372V196.479C386.726 196.017 386.473 195.709 386.093 195.709H381.027ZM386.093 298.913H381.027C380.331 298.913 379.761 298.22 379.761 297.372V196.479C379.761 195.632 380.331 194.938 381.027 194.938H386.093C386.79 194.938 387.36 195.632 387.36 196.479V297.372C387.36 298.22 386.79 298.913 386.093 298.913Z" fill="#496576"/>
<path fill-rule="evenodd" clip-rule="evenodd" d="M59.914 0.565919H328.389C359.659 0.565919 385.033 25.939 385.033 57.2091V734.988C385.033 766.258 359.659 791.631 328.389 791.631H59.914C28.6437 791.631 3.27046 766.258 3.27046 734.988V57.2091C3.27046 25.939 28.6437 0.565919 59.914 0.565919Z" fill="#142A37"/>
<path fill-rule="evenodd" clip-rule="evenodd" d="M59.9172 0.764235H328.387C359.579 0.764235 384.835 26.0206 384.835 57.2129V734.985C384.835 766.177 359.579 791.433 328.387 791.433H59.9172C28.7251 791.433 3.46879 766.177 3.46879 734.985V57.2129C3.46879 26.0206 28.7251 0.764235 59.9172 0.764235Z" stroke="#0A171F"/>
<path fill-rule="evenodd" clip-rule="evenodd" d="M60.6987 6.38466H327.228C355.743 6.38466 378.828 29.4681 378.828 57.9835V733.816C378.828 762.331 355.743 785.414 327.228 785.414H60.6987C32.1827 785.414 9.09921 762.331 9.09921 733.816V57.9835C9.09921 29.4681 32.1827 6.38466 60.6987 6.38466Z" fill="black"/>
<g opacity="0.54">
<path fill-rule="evenodd" clip-rule="evenodd" d="M60.3063 4.44735C31.0151 4.44735 7.15536 28.3071 7.15536 57.5983V734.595C7.15536 763.886 31.0151 787.746 60.3063 787.746H328.389C357.68 787.746 381.54 763.886 381.54 734.595V57.5983C381.54 28.3071 357.68 4.44735 328.389 4.44735H60.3063ZM328.389 789.297H60.3064C30.1616 789.297 5.60352 764.739 5.60352 734.595V57.5983C5.60352 27.4536 30.1616 2.89551 60.3064 2.89551H328.389C358.534 2.89551 383.092 27.4536 383.092 57.5983V734.595C383.092 764.739 358.534 789.297 328.389 789.297Z" fill="#7899AD"/>
</g>
<path fill-rule="evenodd" clip-rule="evenodd" d="M2.99021 708.853H9.10999V713.99H2.99021V708.853Z" fill="#323E43"/>
<path fill-rule="evenodd" clip-rule="evenodd" d="M90.3773 791.887V785.416H95.8026V791.887H90.3773Z" fill="#323E43"/>
<path fill-rule="evenodd" clip-rule="evenodd" d="M385.328 715.194H378.828V709.771H385.328V715.194Z" fill="#323E43"/>
<path fill-rule="evenodd" clip-rule="evenodd" d="M378.84 82.5629H385.334V86.4132H378.84V82.5629Z" fill="#323E43"/>
<path fill-rule="evenodd" clip-rule="evenodd" d="M2.98851 82.5629H9.08405V86.4132H2.98851V82.5629Z" fill="#323E43"/>
<path fill-rule="evenodd" clip-rule="evenodd" d="M305.225 0.113885H312.926V6.38323H305.225V0.113885Z" fill="#323E43"/>
<path fill-rule="evenodd" clip-rule="evenodd" d="M222.683 27.6077C222.683 24.1616 226.121 21.3681 230.362 21.3681C234.604 21.3681 238.042 24.1616 238.042 27.6077C238.042 31.0537 234.604 33.8473 230.362 33.8473C226.121 33.8473 222.683 31.0537 222.683 27.6077Z" fill="#090909"/>
<path fill-rule="evenodd" clip-rule="evenodd" d="M228.444 27.1274C228.444 25.0068 229.518 23.2876 230.843 23.2876C232.169 23.2876 233.243 25.0068 233.243 27.1274C233.243 29.2481 232.169 30.9672 230.843 30.9672C229.518 30.9672 228.444 29.2481 228.444 27.1274Z" fill="url(#paint0_radial_3_7137)"/>
<path fill-rule="evenodd" clip-rule="evenodd" d="M230.816 24.6214C229.226 24.6214 227.907 25.9404 227.907 27.5311C227.907 29.1217 229.226 30.4408 230.816 30.4408C232.407 30.4408 233.726 29.1217 233.726 27.5311C233.726 25.9404 232.407 24.6214 230.816 24.6214ZM230.816 30.8288C228.993 30.8288 227.519 29.3545 227.519 27.5311C227.519 25.7077 228.993 24.2334 230.816 24.2334C232.64 24.2334 234.114 25.7077 234.114 27.5311C234.114 29.3545 232.64 30.8288 230.816 30.8288Z" fill="#050203"/>
<path fill-rule="evenodd" clip-rule="evenodd" d="M178.829 25.0103C177.432 25.0103 176.307 26.1354 176.307 27.5321C176.307 28.9287 177.432 30.0538 178.829 30.0538H211.03C212.427 30.0538 213.552 28.9287 213.552 27.5321C213.552 26.1354 212.427 25.0103 211.03 25.0103H178.829ZM211.03 30.8298H178.829C177.006 30.8298 175.531 29.3555 175.531 27.5321C175.531 25.7086 177.006 24.2344 178.829 24.2344H211.03C212.853 24.2344 214.328 25.7086 214.328 27.5321C214.328 29.3555 212.853 30.8298 211.03 30.8298Z" fill="#1A1919"/>
<path fill-rule="evenodd" clip-rule="evenodd" d="M205.794 27.3349H205.408V27.7209H205.794H206.18V27.3349H205.794Z" fill="#181818"/>
<path fill-rule="evenodd" clip-rule="evenodd" d="M206.957 27.3349H206.566V27.7209H206.957H207.348V27.3349H206.957Z" fill="#181818"/>
<path fill-rule="evenodd" clip-rule="evenodd" d="M204.626 27.3349H204.24V27.7209H204.626H205.012V27.3349H204.626Z" fill="#181818"/>
<path fill-rule="evenodd" clip-rule="evenodd" d="M197.645 29.6708H197.254V30.0568H197.645H198.036V29.6708H197.645Z" fill="#181818"/>
<path fill-rule="evenodd" clip-rule="evenodd" d="M178.243 28.8888V28.5029H177.857H177.471V28.8888H177.857H178.243Z" fill="#181818"/>
<path fill-rule="evenodd" clip-rule="evenodd" d="M210.831 27.3355H211.227V26.9495V26.5636H210.831V26.9495V27.3355Z" fill="#181818"/>
<path fill-rule="evenodd" clip-rule="evenodd" d="M195.32 29.6708H194.929V30.0568H195.32H195.711V29.6708H195.32Z" fill="#181818"/>
<path fill-rule="evenodd" clip-rule="evenodd" d="M190.663 27.3349H190.277V27.7209H190.663H191.049V27.3349H190.663Z" fill="#181818"/>
<path fill-rule="evenodd" clip-rule="evenodd" d="M209.673 27.3355H210.059V26.9495V26.5636H209.673V26.9495V27.3355Z" fill="#181818"/>
<path fill-rule="evenodd" clip-rule="evenodd" d="M194.152 29.6708H193.761V30.0568H194.152H194.543V29.6708H194.152Z" fill="#181818"/>
<path fill-rule="evenodd" clip-rule="evenodd" d="M189.109 28.8885H188.723V29.2795V29.6704H189.109V29.2795V28.8885Z" fill="#181818"/>
<path fill-rule="evenodd" clip-rule="evenodd" d="M177.472 27.7205H177.086V28.1115V28.5024H177.472V28.1115V27.7205Z" fill="#181818"/>
<path fill-rule="evenodd" clip-rule="evenodd" d="M196.483 29.6708H196.097V30.0568H196.483H196.869V29.6708H196.483Z" fill="#181818"/>
<path fill-rule="evenodd" clip-rule="evenodd" d="M208.12 27.3349H207.734V27.7209H208.12H208.506V27.3349H208.12Z" fill="#181818"/>
<path fill-rule="evenodd" clip-rule="evenodd" d="M209.283 27.3349H208.892V27.7209H209.283H209.674V27.3349H209.283Z" fill="#181818"/>
<path fill-rule="evenodd" clip-rule="evenodd" d="M180.965 28.8885H180.58V29.2795V29.6704H180.965V29.2795V28.8885Z" fill="#181818"/>
<path fill-rule="evenodd" clip-rule="evenodd" d="M179.798 28.8885H179.412V29.2795V29.6704H179.798V29.2795V28.8885Z" fill="#181818"/>
<path fill-rule="evenodd" clip-rule="evenodd" d="M195.32 27.3349H194.929V27.7209H195.32H195.711V27.3349H195.32Z" fill="#181818"/>
<path fill-rule="evenodd" clip-rule="evenodd" d="M196.483 27.3349H196.097V27.7209H196.483H196.869V27.3349H196.483Z" fill="#181818"/>
<path fill-rule="evenodd" clip-rule="evenodd" d="M202.301 29.6708H201.915V30.0568H202.301H202.687V29.6708H202.301Z" fill="#181818"/>
<path fill-rule="evenodd" clip-rule="evenodd" d="M203.463 29.6708H203.072V30.0568H203.463H203.854V29.6708H203.463Z" fill="#181818"/>
<path fill-rule="evenodd" clip-rule="evenodd" d="M192.989 27.3349H192.603V27.7209H192.989H193.375V27.3349H192.989Z" fill="#181818"/>
<path fill-rule="evenodd" clip-rule="evenodd" d="M204.626 29.6708H204.24V30.0568H204.626H205.012V29.6708H204.626Z" fill="#181818"/>
<path fill-rule="evenodd" clip-rule="evenodd" d="M191.826 27.3349H191.435V27.7209H191.826H192.217V27.3349H191.826Z" fill="#181818"/>
<path fill-rule="evenodd" clip-rule="evenodd" d="M197.645 27.3349H197.254V27.7209H197.645H198.036V27.3349H197.645Z" fill="#181818"/>
<path fill-rule="evenodd" clip-rule="evenodd" d="M194.152 27.3349H193.761V27.7209H194.152H194.543V27.3349H194.152Z" fill="#181818"/>
<path fill-rule="evenodd" clip-rule="evenodd" d="M199.975 29.6708H199.59V30.0568H199.975H200.361V29.6708H199.975Z" fill="#181818"/>
<path fill-rule="evenodd" clip-rule="evenodd" d="M201.138 27.3349H200.747V27.7209H201.138H201.529V27.3349H201.138Z" fill="#181818"/>
<path fill-rule="evenodd" clip-rule="evenodd" d="M198.808 29.6708H198.422V30.0568H198.808H199.193V29.6708H198.808Z" fill="#181818"/>
<path fill-rule="evenodd" clip-rule="evenodd" d="M202.301 27.3349H201.915V27.7209H202.301H202.687V27.3349H202.301Z" fill="#181818"/>
<path fill-rule="evenodd" clip-rule="evenodd" d="M187.942 28.8885H187.556V29.2795V29.6704H187.942V29.2795V28.8885Z" fill="#181818"/>
<path fill-rule="evenodd" clip-rule="evenodd" d="M203.463 27.3349H203.072V27.7209H203.463H203.854V27.3349H203.463Z" fill="#181818"/>
<path fill-rule="evenodd" clip-rule="evenodd" d="M178.64 28.8885H178.244V29.2795V29.6704H178.64V29.2795V28.8885Z" fill="#181818"/>
<path fill-rule="evenodd" clip-rule="evenodd" d="M180.58 27.3355H180.965V26.9495V26.5636H180.58V26.9495V27.3355Z" fill="#181818"/>
<path fill-rule="evenodd" clip-rule="evenodd" d="M201.138 29.6708H200.747V30.0568H201.138H201.529V29.6708H201.138Z" fill="#181818"/>
<path fill-rule="evenodd" clip-rule="evenodd" d="M199.975 27.3349H199.59V27.7209H199.975H200.361V27.3349H199.975Z" fill="#181818"/>
<path fill-rule="evenodd" clip-rule="evenodd" d="M210.445 27.3349H210.059V27.7209H210.445H210.831V27.3349H210.445Z" fill="#181818"/>
<path fill-rule="evenodd" clip-rule="evenodd" d="M184.844 29.6708H184.458V30.0568H184.844H185.23V29.6708H184.844Z" fill="#181818"/>
<path fill-rule="evenodd" clip-rule="evenodd" d="M179.412 26.1775H179.798V25.7866V25.3956H179.412V25.7866V26.1775Z" fill="#181818"/>
<path fill-rule="evenodd" clip-rule="evenodd" d="M189.881 27.3355H190.277V26.9495V26.5636H189.881V26.9495V27.3355Z" fill="#181818"/>
<path fill-rule="evenodd" clip-rule="evenodd" d="M183.676 29.6708H183.29V30.0568H183.676H184.062V29.6708H183.676Z" fill="#181818"/>
<path fill-rule="evenodd" clip-rule="evenodd" d="M188.723 27.3355H189.109V26.9495V26.5636H188.723V26.9495V27.3355Z" fill="#181818"/>
<path fill-rule="evenodd" clip-rule="evenodd" d="M187.556 27.3355H187.942V26.9495V26.5636H187.556V26.9495V27.3355Z" fill="#181818"/>
<path fill-rule="evenodd" clip-rule="evenodd" d="M193.375 27.3355H193.761V26.9495V26.5636H193.375V26.9495V27.3355Z" fill="#181818"/>
<path fill-rule="evenodd" clip-rule="evenodd" d="M178.244 26.1775H178.64V25.7866V25.3956H178.244V25.7866V26.1775Z" fill="#181818"/>
<path fill-rule="evenodd" clip-rule="evenodd" d="M191.049 27.3355H191.435V26.9495V26.5636H191.049V26.9495V27.3355Z" fill="#181818"/>
<path fill-rule="evenodd" clip-rule="evenodd" d="M192.217 27.3355H192.603V26.9495V26.5636H192.217V26.9495V27.3355Z" fill="#181818"/>
<path fill-rule="evenodd" clip-rule="evenodd" d="M186.007 29.6708H185.616V30.0568H186.007H186.398V29.6708H186.007Z" fill="#181818"/>
<path fill-rule="evenodd" clip-rule="evenodd" d="M182.904 27.3355H183.29V26.9495V26.5636H182.904V26.9495V27.3355Z" fill="#181818"/>
<path fill-rule="evenodd" clip-rule="evenodd" d="M181.351 29.6708H180.965V30.0568H181.351H181.737V29.6708H181.351Z" fill="#181818"/>
<path fill-rule="evenodd" clip-rule="evenodd" d="M192.603 28.8885H192.217V29.2795V29.6704H192.603V29.2795V28.8885Z" fill="#181818"/>
<path fill-rule="evenodd" clip-rule="evenodd" d="M194.542 27.3355H194.928V26.9495V26.5636H194.542V26.9495V27.3355Z" fill="#181818"/>
<path fill-rule="evenodd" clip-rule="evenodd" d="M180.188 29.6708H179.797V30.0568H180.188H180.579V29.6708H180.188Z" fill="#181818"/>
<path fill-rule="evenodd" clip-rule="evenodd" d="M181.737 27.3355H182.122V26.9495V26.5636H181.737V26.9495V27.3355Z" fill="#181818"/>
<path fill-rule="evenodd" clip-rule="evenodd" d="M208.506 27.3355H208.891V26.9495V26.5636H208.506V26.9495V27.3355Z" fill="#181818"/>
<path fill-rule="evenodd" clip-rule="evenodd" d="M186.398 27.3355H186.784V26.9495V26.5636H186.398V26.9495V27.3355Z" fill="#181818"/>
<path fill-rule="evenodd" clip-rule="evenodd" d="M180.58 26.1775H180.965V25.7866V25.3956H180.58V25.7866V26.1775Z" fill="#181818"/>
<path fill-rule="evenodd" clip-rule="evenodd" d="M182.514 29.6708H182.123V30.0568H182.514H182.905V29.6708H182.514Z" fill="#181818"/>
<path fill-rule="evenodd" clip-rule="evenodd" d="M185.23 27.3355H185.616V26.9495V26.5636H185.23V26.9495V27.3355Z" fill="#181818"/>
<path fill-rule="evenodd" clip-rule="evenodd" d="M184.062 27.3355H184.458V26.9495V26.5636H184.062V26.9495V27.3355Z" fill="#181818"/>
<path fill-rule="evenodd" clip-rule="evenodd" d="M191.826 29.6708H191.435V30.0568H191.826H192.217V29.6708H191.826Z" fill="#181818"/>
<path fill-rule="evenodd" clip-rule="evenodd" d="M203.855 27.3355H204.241V26.9495V26.5636H203.855V26.9495V27.3355Z" fill="#181818"/>
<path fill-rule="evenodd" clip-rule="evenodd" d="M190.663 29.6708H190.277V30.0568H190.663H191.049V29.6708H190.663Z" fill="#181818"/>
<path fill-rule="evenodd" clip-rule="evenodd" d="M202.687 27.3355H203.073V26.9495V26.5636H202.687V26.9495V27.3355Z" fill="#181818"/>
<path fill-rule="evenodd" clip-rule="evenodd" d="M177.086 27.3355H177.472V26.9495V26.5636H177.086V26.9495V27.3355Z" fill="#181818"/>
<path fill-rule="evenodd" clip-rule="evenodd" d="M205.013 27.3355H205.409V26.9495V26.5636H205.013V26.9495V27.3355Z" fill="#181818"/>
<path fill-rule="evenodd" clip-rule="evenodd" d="M177.086 27.7209V27.3349H176.695H176.304V27.7209H176.695H177.086Z" fill="#181818"/>
<path fill-rule="evenodd" clip-rule="evenodd" d="M207.349 27.3355H207.734V26.9495V26.5636H207.349V26.9495V27.3355Z" fill="#181818"/>
<path fill-rule="evenodd" clip-rule="evenodd" d="M192.989 29.6708H192.603V30.0568H192.989H193.375V29.6708H192.989Z" fill="#181818"/>
<path fill-rule="evenodd" clip-rule="evenodd" d="M206.181 27.3355H206.567V26.9495V26.5636H206.181V26.9495V27.3355Z" fill="#181818"/>
<path fill-rule="evenodd" clip-rule="evenodd" d="M190.277 28.8885H189.881V29.2795V29.6704H190.277V29.2795V28.8885Z" fill="#181818"/>
<path fill-rule="evenodd" clip-rule="evenodd" d="M195.71 27.3355H196.096V26.9495V26.5636H195.71V26.9495V27.3355Z" fill="#181818"/>
<path fill-rule="evenodd" clip-rule="evenodd" d="M188.333 29.6708H187.942V30.0568H188.333H188.724V29.6708H188.333Z" fill="#181818"/>
<path fill-rule="evenodd" clip-rule="evenodd" d="M196.868 27.3355H197.254V26.9495V26.5636H196.868V26.9495V27.3355Z" fill="#181818"/>
<path fill-rule="evenodd" clip-rule="evenodd" d="M198.036 27.3355H198.422V26.9495V26.5636H198.036V26.9495V27.3355Z" fill="#181818"/>
<path fill-rule="evenodd" clip-rule="evenodd" d="M191.435 28.8885H191.049V29.2795V29.6704H191.435V29.2795V28.8885Z" fill="#181818"/>
<path fill-rule="evenodd" clip-rule="evenodd" d="M187.17 29.6708H186.784V30.0568H187.17H187.556V29.6708H187.17Z" fill="#181818"/>
<path fill-rule="evenodd" clip-rule="evenodd" d="M199.194 27.3355H199.59V26.9495V26.5636H199.194V26.9495V27.3355Z" fill="#181818"/>
<path fill-rule="evenodd" clip-rule="evenodd" d="M189.496 29.6708H189.11V30.0568H189.496H189.882V29.6708H189.496Z" fill="#181818"/>
<path fill-rule="evenodd" clip-rule="evenodd" d="M178.243 26.5629V26.177H177.857H177.471V26.5629H177.857H178.243Z" fill="#181818"/>
<path fill-rule="evenodd" clip-rule="evenodd" d="M200.362 27.3355H200.748V26.9495V26.5636H200.362V26.9495V27.3355Z" fill="#181818"/>
<path fill-rule="evenodd" clip-rule="evenodd" d="M201.529 27.3355H201.915V26.9495V26.5636H201.529V26.9495V27.3355Z" fill="#181818"/>
<path fill-rule="evenodd" clip-rule="evenodd" d="M198.808 27.3349H198.422V27.7209H198.808H199.193V27.3349H198.808Z" fill="#181818"/>
<path fill-rule="evenodd" clip-rule="evenodd" d="M184.062 30.4424V30.8284H184.458V30.4424V30.0565H184.062V30.4424Z" fill="#181818"/>
<path fill-rule="evenodd" clip-rule="evenodd" d="M175.918 29.084C176.034 29.2795 176.149 29.475 176.304 29.6704V29.2795V28.8885H175.918V29.084Z" fill="#181818"/>
<path fill-rule="evenodd" clip-rule="evenodd" d="M177.086 30.3255C177.201 30.4023 177.356 30.4792 177.472 30.5176V30.4408V30.0565H177.086V30.3255Z" fill="#181818"/>
<path fill-rule="evenodd" clip-rule="evenodd" d="M175.532 27.3349C175.532 27.4121 175.532 27.4507 175.532 27.5279C175.532 27.6051 175.532 27.6437 175.532 27.7209H175.918V27.3349H175.532Z" fill="#181818"/>
<path fill-rule="evenodd" clip-rule="evenodd" d="M175.682 28.5029C175.722 28.6187 175.761 28.773 175.84 28.8888H175.918V28.5029H175.682Z" fill="#181818"/>
<path fill-rule="evenodd" clip-rule="evenodd" d="M175.84 26.177C175.761 26.2927 175.722 26.4471 175.682 26.5629H175.918V26.177H175.84Z" fill="#181818"/>
<path fill-rule="evenodd" clip-rule="evenodd" d="M182.904 30.4424V30.8284H183.29V30.4424V30.0565H182.904V30.4424Z" fill="#181818"/>
<path fill-rule="evenodd" clip-rule="evenodd" d="M181.737 30.4424V30.8284H182.122V30.4424V30.0565H181.737V30.4424Z" fill="#181818"/>
<path fill-rule="evenodd" clip-rule="evenodd" d="M180.58 30.4424V30.8284H180.965V30.4424V30.0565H180.58V30.4424Z" fill="#181818"/>
<path fill-rule="evenodd" clip-rule="evenodd" d="M179.412 30.4424V30.8284H179.798V30.4424V30.0565H179.412V30.4424Z" fill="#181818"/>
<path fill-rule="evenodd" clip-rule="evenodd" d="M178.244 30.4424V30.7898C178.362 30.7898 178.521 30.8284 178.64 30.8284V30.4424V30.0565H178.244V30.4424Z" fill="#181818"/>
<path fill-rule="evenodd" clip-rule="evenodd" d="M176.695 29.6708H176.304C176.422 29.8252 176.539 29.941 176.695 30.0568H177.086V29.6708H176.695Z" fill="#181818"/>
<path fill-rule="evenodd" clip-rule="evenodd" d="M176.304 25.7866V25.3956C176.149 25.5911 176.034 25.7866 175.918 25.9821V26.1775H176.304V25.7866Z" fill="#181818"/>
<path fill-rule="evenodd" clip-rule="evenodd" d="M184.458 24.6236V24.2377H184.062V24.6236V25.0096H184.458V24.6236Z" fill="#181818"/>
<path fill-rule="evenodd" clip-rule="evenodd" d="M183.29 24.6236V24.2377H182.904V24.6236V25.0096H183.29V24.6236Z" fill="#181818"/>
<path fill-rule="evenodd" clip-rule="evenodd" d="M186.784 24.6236V24.2377H186.398V24.6236V25.0096H186.784V24.6236Z" fill="#181818"/>
<path fill-rule="evenodd" clip-rule="evenodd" d="M185.616 24.6236V24.2377H185.23V24.6236V25.0096H185.616V24.6236Z" fill="#181818"/>
<path fill-rule="evenodd" clip-rule="evenodd" d="M182.122 24.6236V24.2377H181.737V24.6236V25.0096H182.122V24.6236Z" fill="#181818"/>
<path fill-rule="evenodd" clip-rule="evenodd" d="M176.695 25.01C176.578 25.1258 176.422 25.2416 176.304 25.3959H176.695H177.086V25.01H176.695Z" fill="#181818"/>
<path fill-rule="evenodd" clip-rule="evenodd" d="M177.472 24.6255V24.5486C177.356 24.587 177.201 24.6639 177.086 24.7407V25.0097H177.472V24.6255Z" fill="#181818"/>
<path fill-rule="evenodd" clip-rule="evenodd" d="M178.64 24.6236V24.2377C178.521 24.2377 178.362 24.2763 178.244 24.2763V24.6236V25.0096H178.64V24.6236Z" fill="#181818"/>
<path fill-rule="evenodd" clip-rule="evenodd" d="M180.965 24.6236V24.2377H180.58V24.6236V25.0096H180.965V24.6236Z" fill="#181818"/>
<path fill-rule="evenodd" clip-rule="evenodd" d="M179.798 24.6236V24.2377H179.412V24.6236V25.0096H179.798V24.6236Z" fill="#181818"/>
<path fill-rule="evenodd" clip-rule="evenodd" d="M193.375 30.4424V30.8284H193.761V30.4424V30.0565H193.375V30.4424Z" fill="#181818"/>
<path fill-rule="evenodd" clip-rule="evenodd" d="M201.529 30.4424V30.8284H201.915V30.4424V30.0565H201.529V30.4424Z" fill="#181818"/>
<path fill-rule="evenodd" clip-rule="evenodd" d="M202.687 30.4424V30.8284H203.073V30.4424V30.0565H202.687V30.4424Z" fill="#181818"/>
<path fill-rule="evenodd" clip-rule="evenodd" d="M185.23 30.4424V30.8284H185.616V30.4424V30.0565H185.23V30.4424Z" fill="#181818"/>
<path fill-rule="evenodd" clip-rule="evenodd" d="M199.194 30.4424V30.8284H199.59V30.4424V30.0565H199.194V30.4424Z" fill="#181818"/>
<path fill-rule="evenodd" clip-rule="evenodd" d="M200.362 30.4424V30.8284H200.748V30.4424V30.0565H200.362V30.4424Z" fill="#181818"/>
<path fill-rule="evenodd" clip-rule="evenodd" d="M207.349 30.4424V30.8284H207.734V30.4424V30.0565H207.349V30.4424Z" fill="#181818"/>
<path fill-rule="evenodd" clip-rule="evenodd" d="M208.506 30.4424V30.8284H208.891V30.4424V30.0565H208.506V30.4424Z" fill="#181818"/>
<path fill-rule="evenodd" clip-rule="evenodd" d="M209.673 30.4424V30.8284H210.059V30.4424V30.0565H209.673V30.4424Z" fill="#181818"/>
<path fill-rule="evenodd" clip-rule="evenodd" d="M206.181 30.4424V30.8284H206.567V30.4424V30.0565H206.181V30.4424Z" fill="#181818"/>
<path fill-rule="evenodd" clip-rule="evenodd" d="M205.013 30.4424V30.8284H205.409V30.4424V30.0565H205.013V30.4424Z" fill="#181818"/>
<path fill-rule="evenodd" clip-rule="evenodd" d="M198.036 30.4424V30.8284H198.422V30.4424V30.0565H198.036V30.4424Z" fill="#181818"/>
<path fill-rule="evenodd" clip-rule="evenodd" d="M203.855 30.4424V30.8284H204.241V30.4424V30.0565H203.855V30.4424Z" fill="#181818"/>
<path fill-rule="evenodd" clip-rule="evenodd" d="M189.881 30.4424V30.8284H190.277V30.4424V30.0565H189.881V30.4424Z" fill="#181818"/>
<path fill-rule="evenodd" clip-rule="evenodd" d="M188.723 30.4424V30.8284H189.109V30.4424V30.0565H188.723V30.4424Z" fill="#181818"/>
<path fill-rule="evenodd" clip-rule="evenodd" d="M196.868 30.4424V30.8284H197.254V30.4424V30.0565H196.868V30.4424Z" fill="#181818"/>
<path fill-rule="evenodd" clip-rule="evenodd" d="M187.556 30.4424V30.8284H187.942V30.4424V30.0565H187.556V30.4424Z" fill="#181818"/>
<path fill-rule="evenodd" clip-rule="evenodd" d="M191.049 30.4424V30.8284H191.435V30.4424V30.0565H191.049V30.4424Z" fill="#181818"/>
<path fill-rule="evenodd" clip-rule="evenodd" d="M186.398 30.4424V30.8284H186.784V30.4424V30.0565H186.398V30.4424Z" fill="#181818"/>
<path fill-rule="evenodd" clip-rule="evenodd" d="M194.542 30.4424V30.8284H194.928V30.4424V30.0565H194.542V30.4424Z" fill="#181818"/>
<path fill-rule="evenodd" clip-rule="evenodd" d="M195.71 30.4424V30.8284H196.096V30.4424V30.0565H195.71V30.4424Z" fill="#181818"/>
<path fill-rule="evenodd" clip-rule="evenodd" d="M192.217 30.4424V30.8284H192.603V30.4424V30.0565H192.217V30.4424Z" fill="#181818"/>
<path fill-rule="evenodd" clip-rule="evenodd" d="M187.942 24.6236V24.2377H187.556V24.6236V25.0096H187.942V24.6236Z" fill="#181818"/>
<path fill-rule="evenodd" clip-rule="evenodd" d="M198.422 24.6236V24.2377H198.036V24.6236V25.0096H198.422V24.6236Z" fill="#181818"/>
<path fill-rule="evenodd" clip-rule="evenodd" d="M210.445 29.6708H210.059V30.0568H210.445H210.831V29.6708H210.445Z" fill="#181818"/>
<path fill-rule="evenodd" clip-rule="evenodd" d="M180.188 27.3349H179.797V27.7209H180.188H180.579V27.3349H180.188Z" fill="#181818"/>
<path fill-rule="evenodd" clip-rule="evenodd" d="M213.941 28.8888H214.019C214.058 28.773 214.136 28.6187 214.174 28.5029H213.941H213.553V28.8888H213.941Z" fill="#181818"/>
<path fill-rule="evenodd" clip-rule="evenodd" d="M185.616 28.8885H185.23V29.2795V29.6704H185.616V29.2795V28.8885Z" fill="#181818"/>
<path fill-rule="evenodd" clip-rule="evenodd" d="M181.351 27.3349H180.965V27.7209H181.351H181.737V27.3349H181.351Z" fill="#181818"/>
<path fill-rule="evenodd" clip-rule="evenodd" d="M211.999 29.2795V29.6704H212.385V29.2795V28.8885H211.999V29.2795Z" fill="#181818"/>
<path fill-rule="evenodd" clip-rule="evenodd" d="M182.514 27.3349H182.123V27.7209H182.514H182.905V27.3349H182.514Z" fill="#181818"/>
<path fill-rule="evenodd" clip-rule="evenodd" d="M211.999 30.4449V30.678C212.115 30.6391 212.27 30.6003 212.385 30.5226V30.4449V30.0565H211.999V30.4449Z" fill="#181818"/>
<path fill-rule="evenodd" clip-rule="evenodd" d="M211.613 27.7209H211.999V27.3349H211.613H211.227V27.7209H211.613Z" fill="#181818"/>
<path fill-rule="evenodd" clip-rule="evenodd" d="M177.857 27.3349H177.471V27.7209H177.857H178.243V27.3349H177.857Z" fill="#181818"/>
<path fill-rule="evenodd" clip-rule="evenodd" d="M211.227 30.4424V30.0565H210.831V30.4424V30.8284H211.029C211.109 30.8284 211.148 30.8284 211.227 30.8284V30.4424Z" fill="#181818"/>
<path fill-rule="evenodd" clip-rule="evenodd" d="M183.29 28.8885H182.904V29.2795V29.6704H183.29V29.2795V28.8885Z" fill="#181818"/>
<path fill-rule="evenodd" clip-rule="evenodd" d="M188.333 27.3349H187.942V27.7209H188.333H188.724V27.3349H188.333Z" fill="#181818"/>
<path fill-rule="evenodd" clip-rule="evenodd" d="M206.957 29.6708H206.566V30.0568H206.957H207.348V29.6708H206.957Z" fill="#181818"/>
<path fill-rule="evenodd" clip-rule="evenodd" d="M186.784 28.8885H186.398V29.2795V29.6704H186.784V29.2795V28.8885Z" fill="#181818"/>
<path fill-rule="evenodd" clip-rule="evenodd" d="M209.283 29.6708H208.892V30.0568H209.283H209.674V29.6708H209.283Z" fill="#181818"/>
<path fill-rule="evenodd" clip-rule="evenodd" d="M189.496 27.3349H189.11V27.7209H189.496H189.882V27.3349H189.496Z" fill="#181818"/>
<path fill-rule="evenodd" clip-rule="evenodd" d="M187.17 27.3349H186.784V27.7209H187.17H187.556V27.3349H187.17Z" fill="#181818"/>
<path fill-rule="evenodd" clip-rule="evenodd" d="M182.122 28.8885H181.737V29.2795V29.6704H182.122V29.2795V28.8885Z" fill="#181818"/>
<path fill-rule="evenodd" clip-rule="evenodd" d="M183.676 27.3349H183.29V27.7209H183.676H184.062V27.3349H183.676Z" fill="#181818"/>
<path fill-rule="evenodd" clip-rule="evenodd" d="M184.844 27.3349H184.458V27.7209H184.844H185.23V27.3349H184.844Z" fill="#181818"/>
<path fill-rule="evenodd" clip-rule="evenodd" d="M186.007 27.3349H185.616V27.7209H186.007H186.398V27.3349H186.007Z" fill="#181818"/>
<path fill-rule="evenodd" clip-rule="evenodd" d="M208.12 29.6708H207.734V30.0568H208.12H208.506V29.6708H208.12Z" fill="#181818"/>
<path fill-rule="evenodd" clip-rule="evenodd" d="M194.928 24.6236V24.2377H194.542V24.6236V25.0096H194.928V24.6236Z" fill="#181818"/>
<path fill-rule="evenodd" clip-rule="evenodd" d="M205.794 29.6708H205.408V30.0568H205.794H206.18V29.6708H205.794Z" fill="#181818"/>
<path fill-rule="evenodd" clip-rule="evenodd" d="M197.254 24.6236V24.2377H196.868V24.6236V25.0096H197.254V24.6236Z" fill="#181818"/>
<path fill-rule="evenodd" clip-rule="evenodd" d="M200.748 24.6236V24.2377H200.362V24.6236V25.0096H200.748V24.6236Z" fill="#181818"/>
<path fill-rule="evenodd" clip-rule="evenodd" d="M201.915 24.6236V24.2377H201.529V24.6236V25.0096H201.915V24.6236Z" fill="#181818"/>
<path fill-rule="evenodd" clip-rule="evenodd" d="M199.59 24.6236V24.2377H199.194V24.6236V25.0096H199.59V24.6236Z" fill="#181818"/>
<path fill-rule="evenodd" clip-rule="evenodd" d="M196.096 24.6236V24.2377H195.71V24.6236V25.0096H196.096V24.6236Z" fill="#181818"/>
<path fill-rule="evenodd" clip-rule="evenodd" d="M190.277 24.6236V24.2377H189.881V24.6236V25.0096H190.277V24.6236Z" fill="#181818"/>
<path fill-rule="evenodd" clip-rule="evenodd" d="M191.435 24.6236V24.2377H191.049V24.6236V25.0096H191.435V24.6236Z" fill="#181818"/>
<path fill-rule="evenodd" clip-rule="evenodd" d="M192.603 24.6236V24.2377H192.217V24.6236V25.0096H192.603V24.6236Z" fill="#181818"/>
<path fill-rule="evenodd" clip-rule="evenodd" d="M189.109 24.6236V24.2377H188.723V24.6236V25.0096H189.109V24.6236Z" fill="#181818"/>
<path fill-rule="evenodd" clip-rule="evenodd" d="M193.761 24.6236V24.2377H193.375V24.6236V25.0096H193.761V24.6236Z" fill="#181818"/>
<path fill-rule="evenodd" clip-rule="evenodd" d="M210.059 24.6236V24.2377H209.673V24.6236V25.0096H210.059V24.6236Z" fill="#181818"/>
<path fill-rule="evenodd" clip-rule="evenodd" d="M211.227 24.6236V24.2377C211.148 24.2377 211.109 24.2377 211.029 24.2377H210.831V24.6236V25.0096H211.227V24.6236Z" fill="#181818"/>
<path fill-rule="evenodd" clip-rule="evenodd" d="M208.891 24.6236V24.2377H208.506V24.6236V25.0096H208.891V24.6236Z" fill="#181818"/>
<path fill-rule="evenodd" clip-rule="evenodd" d="M203.073 24.6236V24.2377H202.687V24.6236V25.0096H203.073V24.6236Z" fill="#181818"/>
<path fill-rule="evenodd" clip-rule="evenodd" d="M213.941 26.5629H214.174C214.136 26.4471 214.097 26.2927 214.019 26.177H213.941H213.553V26.5629H213.941Z" fill="#181818"/>
<path fill-rule="evenodd" clip-rule="evenodd" d="M212.385 24.6212V24.5435C212.27 24.5047 212.115 24.427 211.999 24.3882V24.6212V25.0096H212.385V24.6212Z" fill="#181818"/>
<path fill-rule="evenodd" clip-rule="evenodd" d="M213.939 27.7209H214.325C214.325 27.6437 214.325 27.6051 214.325 27.5279C214.325 27.4507 214.325 27.4121 214.325 27.3349H213.939H213.553V27.7209H213.939Z" fill="#181818"/>
<path fill-rule="evenodd" clip-rule="evenodd" d="M205.409 24.6236V24.2377H205.013V24.6236V25.0096H205.409V24.6236Z" fill="#181818"/>
<path fill-rule="evenodd" clip-rule="evenodd" d="M204.241 24.6236V24.2377H203.855V24.6236V25.0096H204.241V24.6236Z" fill="#181818"/>
<path fill-rule="evenodd" clip-rule="evenodd" d="M206.567 24.6236V24.2377H206.181V24.6236V25.0096H206.567V24.6236Z" fill="#181818"/>
<path fill-rule="evenodd" clip-rule="evenodd" d="M207.734 24.6236V24.2377H207.349V24.6236V25.0096H207.734V24.6236Z" fill="#181818"/>
<path fill-rule="evenodd" clip-rule="evenodd" d="M204.626 28.5029H204.24V28.8888H204.626H205.012V28.5029H204.626Z" fill="#181818"/>
<path fill-rule="evenodd" clip-rule="evenodd" d="M203.463 25.3959H203.854V25.01H203.463H203.072V25.3959H203.463Z" fill="#181818"/>
<path fill-rule="evenodd" clip-rule="evenodd" d="M205.794 25.3959H206.18V25.01H205.794H205.408V25.3959H205.794Z" fill="#181818"/>
<path fill-rule="evenodd" clip-rule="evenodd" d="M180.188 28.5029H179.797V28.8888H180.188H180.579V28.5029H180.188Z" fill="#181818"/>
<path fill-rule="evenodd" clip-rule="evenodd" d="M182.514 28.5029H182.123V28.8888H182.514H182.905V28.5029H182.514Z" fill="#181818"/>
<path fill-rule="evenodd" clip-rule="evenodd" d="M203.073 28.8885H202.687V29.2795V29.6704H203.073V29.2795V28.8885Z" fill="#181818"/>
<path fill-rule="evenodd" clip-rule="evenodd" d="M178.64 28.1115V27.7205H178.244V28.1115V28.5024H178.64V28.1115Z" fill="#181818"/>
<path fill-rule="evenodd" clip-rule="evenodd" d="M206.957 25.3959H207.348V25.01H206.957H206.566V25.3959H206.957Z" fill="#181818"/>
<path fill-rule="evenodd" clip-rule="evenodd" d="M200.362 26.1775H200.748V25.7866V25.3956H200.362V25.7866V26.1775Z" fill="#181818"/>
<path fill-rule="evenodd" clip-rule="evenodd" d="M178.64 26.9495V26.5636H178.244V26.9495V27.3355H178.64V26.9495Z" fill="#181818"/>
<path fill-rule="evenodd" clip-rule="evenodd" d="M179.025 28.5029H178.639V28.8888H179.025H179.411V28.5029H179.025Z" fill="#181818"/>
<path fill-rule="evenodd" clip-rule="evenodd" d="M204.626 25.3959H205.012V25.01H204.626H204.24V25.3959H204.626Z" fill="#181818"/>
<path fill-rule="evenodd" clip-rule="evenodd" d="M181.351 28.5029H180.965V28.8888H181.351H181.737V28.5029H181.351Z" fill="#181818"/>
<path fill-rule="evenodd" clip-rule="evenodd" d="M209.283 25.3959H209.674V25.01H209.283H208.892V25.3959H209.283Z" fill="#181818"/>
<path fill-rule="evenodd" clip-rule="evenodd" d="M187.17 28.5029H186.784V28.8888H187.17H187.556V28.5029H187.17Z" fill="#181818"/>
<path fill-rule="evenodd" clip-rule="evenodd" d="M183.676 28.5029H183.29V28.8888H183.676H184.062V28.5029H183.676Z" fill="#181818"/>
<path fill-rule="evenodd" clip-rule="evenodd" d="M189.496 28.5029H189.11V28.8888H189.496H189.882V28.5029H189.496Z" fill="#181818"/>
<path fill-rule="evenodd" clip-rule="evenodd" d="M202.687 26.1775H203.073V25.7866V25.3956H202.687V25.7866V26.1775Z" fill="#181818"/>
<path fill-rule="evenodd" clip-rule="evenodd" d="M188.333 28.5029H187.942V28.8888H188.333H188.724V28.5029H188.333Z" fill="#181818"/>
<path fill-rule="evenodd" clip-rule="evenodd" d="M184.844 28.5029H184.458V28.8888H184.844H185.23V28.5029H184.844Z" fill="#181818"/>
<path fill-rule="evenodd" clip-rule="evenodd" d="M201.529 26.1775H201.915V25.7866V25.3956H201.529V25.7866V26.1775Z" fill="#181818"/>
<path fill-rule="evenodd" clip-rule="evenodd" d="M208.12 25.3959H208.506V25.01H208.12H207.734V25.3959H208.12Z" fill="#181818"/>
<path fill-rule="evenodd" clip-rule="evenodd" d="M186.007 28.5029H185.616V28.8888H186.007H186.398V28.5029H186.007Z" fill="#181818"/>
<path fill-rule="evenodd" clip-rule="evenodd" d="M190.663 26.5629H191.049V26.177H190.663H190.277V26.5629H190.663Z" fill="#181818"/>
<path fill-rule="evenodd" clip-rule="evenodd" d="M196.868 26.1775H197.254V25.7866V25.3956H196.868V25.7866V26.1775Z" fill="#181818"/>
<path fill-rule="evenodd" clip-rule="evenodd" d="M188.333 26.5629H188.724V26.177H188.333H187.942V26.5629H188.333Z" fill="#181818"/>
<path fill-rule="evenodd" clip-rule="evenodd" d="M198.808 25.3959H199.193V25.01H198.808H198.422V25.3959H198.808Z" fill="#181818"/>
<path fill-rule="evenodd" clip-rule="evenodd" d="M186.007 26.5629H186.398V26.177H186.007H185.616V26.5629H186.007Z" fill="#181818"/>
<path fill-rule="evenodd" clip-rule="evenodd" d="M199.975 25.3959H200.361V25.01H199.975H199.59V25.3959H199.975Z" fill="#181818"/>
<path fill-rule="evenodd" clip-rule="evenodd" d="M187.17 26.5629H187.556V26.177H187.17H186.784V26.5629H187.17Z" fill="#181818"/>
<path fill-rule="evenodd" clip-rule="evenodd" d="M200.748 28.8885H200.362V29.2795V29.6704H200.748V29.2795V28.8885Z" fill="#181818"/>
<path fill-rule="evenodd" clip-rule="evenodd" d="M179.025 26.5629H179.411V26.177H179.025H178.639V26.5629H179.025Z" fill="#181818"/>
<path fill-rule="evenodd" clip-rule="evenodd" d="M189.496 26.5629H189.882V26.177H189.496H189.11V26.5629H189.496Z" fill="#181818"/>
<path fill-rule="evenodd" clip-rule="evenodd" d="M197.645 25.3959H198.036V25.01H197.645H197.254V25.3959H197.645Z" fill="#181818"/>
<path fill-rule="evenodd" clip-rule="evenodd" d="M210.445 25.3959H210.831V25.01H210.445H210.059V25.3959H210.445Z" fill="#181818"/>
<path fill-rule="evenodd" clip-rule="evenodd" d="M191.826 26.5629H192.217V26.177H191.826H191.435V26.5629H191.826Z" fill="#181818"/>
<path fill-rule="evenodd" clip-rule="evenodd" d="M184.844 26.5629H185.23V26.177H184.844H184.458V26.5629H184.844Z" fill="#181818"/>
<path fill-rule="evenodd" clip-rule="evenodd" d="M201.915 28.8885H201.529V29.2795V29.6704H201.915V29.2795V28.8885Z" fill="#181818"/>
<path fill-rule="evenodd" clip-rule="evenodd" d="M202.301 25.3959H202.687V25.01H202.301H201.915V25.3959H202.301Z" fill="#181818"/>
<path fill-rule="evenodd" clip-rule="evenodd" d="M199.194 26.1775H199.59V25.7866V25.3956H199.194V25.7866V26.1775Z" fill="#181818"/>
<path fill-rule="evenodd" clip-rule="evenodd" d="M180.188 26.5629H180.579V26.177H180.188H179.797V26.5629H180.188Z" fill="#181818"/>
<path fill-rule="evenodd" clip-rule="evenodd" d="M181.351 26.5629H181.737V26.177H181.351H180.965V26.5629H181.351Z" fill="#181818"/>
<path fill-rule="evenodd" clip-rule="evenodd" d="M183.676 26.5629H184.062V26.177H183.676H183.29V26.5629H183.676Z" fill="#181818"/>
<path fill-rule="evenodd" clip-rule="evenodd" d="M182.514 26.5629H182.905V26.177H182.514H182.123V26.5629H182.514Z" fill="#181818"/>
<path fill-rule="evenodd" clip-rule="evenodd" d="M198.036 26.1775H198.422V25.7866V25.3956H198.036V25.7866V26.1775Z" fill="#181818"/>
<path fill-rule="evenodd" clip-rule="evenodd" d="M201.138 25.3959H201.529V25.01H201.138H200.747V25.3959H201.138Z" fill="#181818"/>
<path fill-rule="evenodd" clip-rule="evenodd" d="M209.673 26.1775H210.059V25.7866V25.3956H209.673V25.7866V26.1775Z" fill="#181818"/>
<path fill-rule="evenodd" clip-rule="evenodd" d="M211.613 28.5029H211.227V28.8888H211.613H211.999V28.5029H211.613Z" fill="#181818"/>
<path fill-rule="evenodd" clip-rule="evenodd" d="M211.613 29.6708H211.227V30.0568H211.613H211.999V29.6708H211.613Z" fill="#181818"/>
<path fill-rule="evenodd" clip-rule="evenodd" d="M206.567 28.8885H206.181V29.2795V29.6704H206.567V29.2795V28.8885Z" fill="#181818"/>
<path fill-rule="evenodd" clip-rule="evenodd" d="M210.445 28.5029H210.059V28.8888H210.445H210.831V28.5029H210.445Z" fill="#181818"/>
<path fill-rule="evenodd" clip-rule="evenodd" d="M211.227 28.8885H210.831V29.2795V29.6704H211.227V29.2795V28.8885Z" fill="#181818"/>
<path fill-rule="evenodd" clip-rule="evenodd" d="M209.283 28.5029H208.892V28.8888H209.283H209.674V28.5029H209.283Z" fill="#181818"/>
<path fill-rule="evenodd" clip-rule="evenodd" d="M205.794 28.5029H205.408V28.8888H205.794H206.18V28.5029H205.794Z" fill="#181818"/>
<path fill-rule="evenodd" clip-rule="evenodd" d="M212.385 29.6708V30.0568H212.776H213.167V29.6708H212.776H212.385Z" fill="#181818"/>
<path fill-rule="evenodd" clip-rule="evenodd" d="M208.12 28.5029H207.734V28.8888H208.12H208.506V28.5029H208.12Z" fill="#181818"/>
<path fill-rule="evenodd" clip-rule="evenodd" d="M207.349 26.1775H207.734V25.7866V25.3956H207.349V25.7866V26.1775Z" fill="#181818"/>
<path fill-rule="evenodd" clip-rule="evenodd" d="M196.483 25.3959H196.869V25.01H196.483H196.097V25.3959H196.483Z" fill="#181818"/>
<path fill-rule="evenodd" clip-rule="evenodd" d="M206.957 28.5029H206.566V28.8888H206.957H207.348V28.5029H206.957Z" fill="#181818"/>
<path fill-rule="evenodd" clip-rule="evenodd" d="M208.891 28.8885H208.506V29.2795V29.6704H208.891V29.2795V28.8885Z" fill="#181818"/>
<path fill-rule="evenodd" clip-rule="evenodd" d="M208.506 26.1775H208.891V25.7866V25.3956H208.506V25.7866V26.1775Z" fill="#181818"/>
<path fill-rule="evenodd" clip-rule="evenodd" d="M211.999 26.1775H212.385V25.7866V25.3956H211.999V25.7866V26.1775Z" fill="#181818"/>
<path fill-rule="evenodd" clip-rule="evenodd" d="M207.734 28.8885H207.349V29.2795V29.6704H207.734V29.2795V28.8885Z" fill="#181818"/>
<path fill-rule="evenodd" clip-rule="evenodd" d="M210.831 26.1775H211.227V25.7866V25.3956H210.831V25.7866V26.1775Z" fill="#181818"/>
<path fill-rule="evenodd" clip-rule="evenodd" d="M184.458 28.8885H184.062V29.2795V29.6704H184.458V29.2795V28.8885Z" fill="#181818"/>
<path fill-rule="evenodd" clip-rule="evenodd" d="M210.059 28.8885H209.673V29.2795V29.6704H210.059V29.2795V28.8885Z" fill="#181818"/>
<path fill-rule="evenodd" clip-rule="evenodd" d="M212.776 26.5629H213.167V26.177H212.776H212.385V26.5629H212.776Z" fill="#181818"/>
<path fill-rule="evenodd" clip-rule="evenodd" d="M212.385 28.5029V28.8888H212.776H213.167V28.5029H212.776H212.385Z" fill="#181818"/>
<path fill-rule="evenodd" clip-rule="evenodd" d="M212.385 27.3349V27.7209H212.776H213.167V27.3349H212.776H212.385Z" fill="#181818"/>
<path fill-rule="evenodd" clip-rule="evenodd" d="M198.808 28.5029H198.422V28.8888H198.808H199.193V28.5029H198.808Z" fill="#181818"/>
<path fill-rule="evenodd" clip-rule="evenodd" d="M212.776 25.3959H213.167V25.01H212.776H212.385V25.3959H212.776Z" fill="#181818"/>
<path fill-rule="evenodd" clip-rule="evenodd" d="M195.32 28.5029H194.929V28.8888H195.32H195.711V28.5029H195.32Z" fill="#181818"/>
<path fill-rule="evenodd" clip-rule="evenodd" d="M196.483 28.5029H196.097V28.8888H196.483H196.869V28.5029H196.483Z" fill="#181818"/>
<path fill-rule="evenodd" clip-rule="evenodd" d="M213.167 26.1775H213.553V25.7866V25.3956H213.167V25.7866V26.1775Z" fill="#181818"/>
<path fill-rule="evenodd" clip-rule="evenodd" d="M194.152 28.5029H193.761V28.8888H194.152H194.543V28.5029H194.152Z" fill="#181818"/>
<path fill-rule="evenodd" clip-rule="evenodd" d="M192.989 28.5029H192.603V28.8888H192.989H193.375V28.5029H192.989Z" fill="#181818"/>
<path fill-rule="evenodd" clip-rule="evenodd" d="M191.826 28.5029H191.435V28.8888H191.826H192.217V28.5029H191.826Z" fill="#181818"/>
<path fill-rule="evenodd" clip-rule="evenodd" d="M204.241 28.8885H203.855V29.2795V29.6704H204.241V29.2795V28.8885Z" fill="#181818"/>
<path fill-rule="evenodd" clip-rule="evenodd" d="M213.167 29.2795V29.6704H213.553V29.2795V28.8885H213.167V29.2795Z" fill="#181818"/>
<path fill-rule="evenodd" clip-rule="evenodd" d="M197.645 28.5029H197.254V28.8888H197.645H198.036V28.5029H197.645Z" fill="#181818"/>
<path fill-rule="evenodd" clip-rule="evenodd" d="M203.855 26.1775H204.241V25.7866V25.3956H203.855V25.7866V26.1775Z" fill="#181818"/>
<path fill-rule="evenodd" clip-rule="evenodd" d="M211.613 25.3959H211.999V25.01H211.613H211.227V25.3959H211.613Z" fill="#181818"/>
<path fill-rule="evenodd" clip-rule="evenodd" d="M213.167 28.1115V28.5024H213.553V28.1115V27.7205H213.167V28.1115Z" fill="#181818"/>
<path fill-rule="evenodd" clip-rule="evenodd" d="M202.301 28.5029H201.915V28.8888H202.301H202.687V28.5029H202.301Z" fill="#181818"/>
<path fill-rule="evenodd" clip-rule="evenodd" d="M201.138 28.5029H200.747V28.8888H201.138H201.529V28.5029H201.138Z" fill="#181818"/>
<path fill-rule="evenodd" clip-rule="evenodd" d="M203.463 28.5029H203.072V28.8888H203.463H203.854V28.5029H203.463Z" fill="#181818"/>
<path fill-rule="evenodd" clip-rule="evenodd" d="M206.181 26.1775H206.567V25.7866V25.3956H206.181V25.7866V26.1775Z" fill="#181818"/>
<path fill-rule="evenodd" clip-rule="evenodd" d="M205.013 26.1775H205.409V25.7866V25.3956H205.013V25.7866V26.1775Z" fill="#181818"/>
<path fill-rule="evenodd" clip-rule="evenodd" d="M213.167 26.9495V27.3355H213.553V26.9495V26.5636H213.167V26.9495Z" fill="#181818"/>
<path fill-rule="evenodd" clip-rule="evenodd" d="M190.663 28.5029H190.277V28.8888H190.663H191.049V28.5029H190.663Z" fill="#181818"/>
<path fill-rule="evenodd" clip-rule="evenodd" d="M205.409 28.8885H205.013V29.2795V29.6704H205.409V29.2795V28.8885Z" fill="#181818"/>
<path fill-rule="evenodd" clip-rule="evenodd" d="M199.975 28.5029H199.59V28.8888H199.975H200.361V28.5029H199.975Z" fill="#181818"/>
<path fill-rule="evenodd" clip-rule="evenodd" d="M190.277 27.7205H189.881V28.1115V28.5024H190.277V28.1115V27.7205Z" fill="#181818"/>
<path fill-rule="evenodd" clip-rule="evenodd" d="M196.096 28.8885H195.71V29.2795V29.6704H196.096V29.2795V28.8885Z" fill="#181818"/>
<path fill-rule="evenodd" clip-rule="evenodd" d="M194.928 27.7205H194.542V28.1115V28.5024H194.928V28.1115V27.7205Z" fill="#181818"/>
<path fill-rule="evenodd" clip-rule="evenodd" d="M186.398 26.1775H186.784V25.7866V25.3956H186.398V25.7866V26.1775Z" fill="#181818"/>
<path fill-rule="evenodd" clip-rule="evenodd" d="M197.254 27.7205H196.868V28.1115V28.5024H197.254V28.1115V27.7205Z" fill="#181818"/>
<path fill-rule="evenodd" clip-rule="evenodd" d="M177.857 25.3959H178.243V25.01H177.857H177.471V25.3959H177.857Z" fill="#181818"/>
<path fill-rule="evenodd" clip-rule="evenodd" d="M196.096 27.7205H195.71V28.1115V28.5024H196.096V28.1115V27.7205Z" fill="#181818"/>
<path fill-rule="evenodd" clip-rule="evenodd" d="M191.435 27.7205H191.049V28.1115V28.5024H191.435V28.1115V27.7205Z" fill="#181818"/>
<path fill-rule="evenodd" clip-rule="evenodd" d="M185.23 26.1775H185.616V25.7866V25.3956H185.23V25.7866V26.1775Z" fill="#181818"/>
<path fill-rule="evenodd" clip-rule="evenodd" d="M176.695 26.5629H177.086V26.177H176.695H176.304V26.5629H176.695Z" fill="#181818"/>
<path fill-rule="evenodd" clip-rule="evenodd" d="M193.761 27.7205H193.375V28.1115V28.5024H193.761V28.1115V27.7205Z" fill="#181818"/>
<path fill-rule="evenodd" clip-rule="evenodd" d="M192.603 27.7205H192.217V28.1115V28.5024H192.603V28.1115V27.7205Z" fill="#181818"/>
<path fill-rule="evenodd" clip-rule="evenodd" d="M177.472 25.7866V25.3956H177.086V25.7866V26.1775H177.472V25.7866Z" fill="#181818"/>
<path fill-rule="evenodd" clip-rule="evenodd" d="M198.422 27.7205H198.036V28.1115V28.5024H198.422V28.1115V27.7205Z" fill="#181818"/>
<path fill-rule="evenodd" clip-rule="evenodd" d="M192.989 26.5629H193.375V26.177H192.989H192.603V26.5629H192.989Z" fill="#181818"/>
<path fill-rule="evenodd" clip-rule="evenodd" d="M201.915 27.7205H201.529V28.1115V28.5024H201.915V28.1115V27.7205Z" fill="#181818"/>
<path fill-rule="evenodd" clip-rule="evenodd" d="M181.351 25.3959H181.737V25.01H181.351H180.965V25.3959H181.351Z" fill="#181818"/>
<path fill-rule="evenodd" clip-rule="evenodd" d="M204.241 27.7205H203.855V28.1115V28.5024H204.241V28.1115V27.7205Z" fill="#181818"/>
<path fill-rule="evenodd" clip-rule="evenodd" d="M203.073 27.7205H202.687V28.1115V28.5024H203.073V28.1115V27.7205Z" fill="#181818"/>
<path fill-rule="evenodd" clip-rule="evenodd" d="M199.59 27.7205H199.194V28.1115V28.5024H199.59V28.1115V27.7205Z" fill="#181818"/>
<path fill-rule="evenodd" clip-rule="evenodd" d="M179.025 25.3959H179.411V25.01H179.025H178.639V25.3959H179.025Z" fill="#181818"/>
<path fill-rule="evenodd" clip-rule="evenodd" d="M187.556 26.1775H187.942V25.7866V25.3956H187.556V25.7866V26.1775Z" fill="#181818"/>
<path fill-rule="evenodd" clip-rule="evenodd" d="M200.748 27.7205H200.362V28.1115V28.5024H200.748V28.1115V27.7205Z" fill="#181818"/>
<path fill-rule="evenodd" clip-rule="evenodd" d="M180.188 25.3959H180.579V25.01H180.188H179.797V25.3959H180.188Z" fill="#181818"/>
<path fill-rule="evenodd" clip-rule="evenodd" d="M182.904 26.1775H183.29V25.7866V25.3956H182.904V25.7866V26.1775Z" fill="#181818"/>
<path fill-rule="evenodd" clip-rule="evenodd" d="M180.965 27.7205H180.58V28.1115V28.5024H180.965V28.1115V27.7205Z" fill="#181818"/>
<path fill-rule="evenodd" clip-rule="evenodd" d="M177.857 29.6708H177.471V30.0568H177.857H178.243V29.6708H177.857Z" fill="#181818"/>
<path fill-rule="evenodd" clip-rule="evenodd" d="M177.472 29.2795V28.8885H177.086V29.2795V29.6704H177.472V29.2795Z" fill="#181818"/>
<path fill-rule="evenodd" clip-rule="evenodd" d="M182.122 27.7205H181.737V28.1115V28.5024H182.122V28.1115V27.7205Z" fill="#181818"/>
<path fill-rule="evenodd" clip-rule="evenodd" d="M179.411 27.7209V27.3349H179.025H178.639V27.7209H179.025H179.411Z" fill="#181818"/>
<path fill-rule="evenodd" clip-rule="evenodd" d="M179.412 27.3355H179.798V26.9495V26.5636H179.412V26.9495V27.3355Z" fill="#181818"/>
<path fill-rule="evenodd" clip-rule="evenodd" d="M179.025 29.6708H178.639V30.0568H179.025H179.411V29.6708H179.025Z" fill="#181818"/>
<path fill-rule="evenodd" clip-rule="evenodd" d="M183.29 27.7205H182.904V28.1115V28.5024H183.29V28.1115V27.7205Z" fill="#181818"/>
<path fill-rule="evenodd" clip-rule="evenodd" d="M179.798 27.7205H179.412V28.1115V28.5024H179.798V28.1115V27.7205Z" fill="#181818"/>
<path fill-rule="evenodd" clip-rule="evenodd" d="M193.761 28.8885H193.375V29.2795V29.6704H193.761V29.2795V28.8885Z" fill="#181818"/>
<path fill-rule="evenodd" clip-rule="evenodd" d="M176.695 28.5029H176.304V28.8888H176.695H177.086V28.5029H176.695Z" fill="#181818"/>
<path fill-rule="evenodd" clip-rule="evenodd" d="M187.942 27.7205H187.556V28.1115V28.5024H187.942V28.1115V27.7205Z" fill="#181818"/>
<path fill-rule="evenodd" clip-rule="evenodd" d="M184.458 27.7205H184.062V28.1115V28.5024H184.458V28.1115V27.7205Z" fill="#181818"/>
<path fill-rule="evenodd" clip-rule="evenodd" d="M176.304 28.1115V27.7205H175.918V28.1115V28.5024H176.304V28.1115Z" fill="#181818"/>
<path fill-rule="evenodd" clip-rule="evenodd" d="M189.109 27.7205H188.723V28.1115V28.5024H189.109V28.1115V27.7205Z" fill="#181818"/>
<path fill-rule="evenodd" clip-rule="evenodd" d="M176.304 26.9495V26.5636H175.918V26.9495V27.3355H176.304V26.9495Z" fill="#181818"/>
<path fill-rule="evenodd" clip-rule="evenodd" d="M194.928 28.8885H194.542V29.2795V29.6704H194.928V29.2795V28.8885Z" fill="#181818"/>
<path fill-rule="evenodd" clip-rule="evenodd" d="M181.737 26.1775H182.122V25.7866V25.3956H181.737V25.7866V26.1775Z" fill="#181818"/>
<path fill-rule="evenodd" clip-rule="evenodd" d="M186.784 27.7205H186.398V28.1115V28.5024H186.784V28.1115V27.7205Z" fill="#181818"/>
<path fill-rule="evenodd" clip-rule="evenodd" d="M185.616 27.7205H185.23V28.1115V28.5024H185.616V28.1115V27.7205Z" fill="#181818"/>
<path fill-rule="evenodd" clip-rule="evenodd" d="M184.062 26.1775H184.458V25.7866V25.3956H184.062V25.7866V26.1775Z" fill="#181818"/>
<path fill-rule="evenodd" clip-rule="evenodd" d="M188.723 26.1775H189.109V25.7866V25.3956H188.723V25.7866V26.1775Z" fill="#181818"/>
<path fill-rule="evenodd" clip-rule="evenodd" d="M202.301 26.5629H202.687V26.177H202.301H201.915V26.5629H202.301Z" fill="#181818"/>
<path fill-rule="evenodd" clip-rule="evenodd" d="M191.826 25.3959H192.217V25.01H191.826H191.435V25.3959H191.826Z" fill="#181818"/>
<path fill-rule="evenodd" clip-rule="evenodd" d="M201.138 26.5629H201.529V26.177H201.138H200.747V26.5629H201.138Z" fill="#181818"/>
<path fill-rule="evenodd" clip-rule="evenodd" d="M193.375 26.1775H193.761V25.7866V25.3956H193.375V25.7866V26.1775Z" fill="#181818"/>
<path fill-rule="evenodd" clip-rule="evenodd" d="M199.59 28.8885H199.194V29.2795V29.6704H199.59V29.2795V28.8885Z" fill="#181818"/>
<path fill-rule="evenodd" clip-rule="evenodd" d="M189.496 25.3959H189.882V25.01H189.496H189.11V25.3959H189.496Z" fill="#181818"/>
<path fill-rule="evenodd" clip-rule="evenodd" d="M205.409 27.7205H205.013V28.1115V28.5024H205.409V28.1115V27.7205Z" fill="#181818"/>
<path fill-rule="evenodd" clip-rule="evenodd" d="M199.975 26.5629H200.361V26.177H199.975H199.59V26.5629H199.975Z" fill="#181818"/>
<path fill-rule="evenodd" clip-rule="evenodd" d="M205.794 26.5629H206.18V26.177H205.794H205.408V26.5629H205.794Z" fill="#181818"/>
<path fill-rule="evenodd" clip-rule="evenodd" d="M190.663 25.3959H191.049V25.01H190.663H190.277V25.3959H190.663Z" fill="#181818"/>
<path fill-rule="evenodd" clip-rule="evenodd" d="M204.626 26.5629H205.012V26.177H204.626H204.24V26.5629H204.626Z" fill="#181818"/>
<path fill-rule="evenodd" clip-rule="evenodd" d="M197.645 26.5629H198.036V26.177H197.645H197.254V26.5629H197.645Z" fill="#181818"/>
<path fill-rule="evenodd" clip-rule="evenodd" d="M192.989 25.3959H193.375V25.01H192.989H192.603V25.3959H192.989Z" fill="#181818"/>
<path fill-rule="evenodd" clip-rule="evenodd" d="M195.32 25.3959H195.711V25.01H195.32H194.929V25.3959H195.32Z" fill="#181818"/>
<path fill-rule="evenodd" clip-rule="evenodd" d="M194.152 26.5629H194.543V26.177H194.152H193.761V26.5629H194.152Z" fill="#181818"/>
<path fill-rule="evenodd" clip-rule="evenodd" d="M195.71 26.1775H196.096V25.7866V25.3956H195.71V25.7866V26.1775Z" fill="#181818"/>
<path fill-rule="evenodd" clip-rule="evenodd" d="M196.483 26.5629H196.869V26.177H196.483H196.097V26.5629H196.483Z" fill="#181818"/>
<path fill-rule="evenodd" clip-rule="evenodd" d="M195.32 26.5629H195.711V26.177H195.32H194.929V26.5629H195.32Z" fill="#181818"/>
<path fill-rule="evenodd" clip-rule="evenodd" d="M198.808 26.5629H199.193V26.177H198.808H198.422V26.5629H198.808Z" fill="#181818"/>
<path fill-rule="evenodd" clip-rule="evenodd" d="M194.152 25.3959H194.543V25.01H194.152H193.761V25.3959H194.152Z" fill="#181818"/>
<path fill-rule="evenodd" clip-rule="evenodd" d="M194.542 26.1775H194.928V25.7866V25.3956H194.542V25.7866V26.1775Z" fill="#181818"/>
<path fill-rule="evenodd" clip-rule="evenodd" d="M206.957 26.5629H207.348V26.177H206.957H206.566V26.5629H206.957Z" fill="#181818"/>
<path fill-rule="evenodd" clip-rule="evenodd" d="M203.463 26.5629H203.854V26.177H203.463H203.072V26.5629H203.463Z" fill="#181818"/>
<path fill-rule="evenodd" clip-rule="evenodd" d="M208.891 27.7205H208.506V28.1115V28.5024H208.891V28.1115V27.7205Z" fill="#181818"/>
<path fill-rule="evenodd" clip-rule="evenodd" d="M189.881 26.1775H190.277V25.7866V25.3956H189.881V25.7866V26.1775Z" fill="#181818"/>
<path fill-rule="evenodd" clip-rule="evenodd" d="M210.059 27.7205H209.673V28.1115V28.5024H210.059V28.1115V27.7205Z" fill="#181818"/>
<path fill-rule="evenodd" clip-rule="evenodd" d="M211.227 27.7205H210.831V28.1115V28.5024H211.227V28.1115V27.7205Z" fill="#181818"/>
<path fill-rule="evenodd" clip-rule="evenodd" d="M184.844 25.3959H185.23V25.01H184.844H184.458V25.3959H184.844Z" fill="#181818"/>
<path fill-rule="evenodd" clip-rule="evenodd" d="M206.567 27.7205H206.181V28.1115V28.5024H206.567V28.1115V27.7205Z" fill="#181818"/>
<path fill-rule="evenodd" clip-rule="evenodd" d="M211.999 28.1115V28.5024H212.385V28.1115V27.7205H211.999V28.1115Z" fill="#181818"/>
<path fill-rule="evenodd" clip-rule="evenodd" d="M182.514 25.3959H182.905V25.01H182.514H182.123V25.3959H182.514Z" fill="#181818"/>
<path fill-rule="evenodd" clip-rule="evenodd" d="M197.254 28.8885H196.868V29.2795V29.6704H197.254V29.2795V28.8885Z" fill="#181818"/>
<path fill-rule="evenodd" clip-rule="evenodd" d="M183.676 25.3959H184.062V25.01H183.676H183.29V25.3959H183.676Z" fill="#181818"/>
<path fill-rule="evenodd" clip-rule="evenodd" d="M192.217 26.1775H192.603V25.7866V25.3956H192.217V25.7866V26.1775Z" fill="#181818"/>
<path fill-rule="evenodd" clip-rule="evenodd" d="M207.734 27.7205H207.349V28.1115V28.5024H207.734V28.1115V27.7205Z" fill="#181818"/>
<path fill-rule="evenodd" clip-rule="evenodd" d="M209.283 26.5629H209.674V26.177H209.283H208.892V26.5629H209.283Z" fill="#181818"/>
<path fill-rule="evenodd" clip-rule="evenodd" d="M210.445 26.5629H210.831V26.177H210.445H210.059V26.5629H210.445Z" fill="#181818"/>
<path fill-rule="evenodd" clip-rule="evenodd" d="M198.422 28.8885H198.036V29.2795V29.6704H198.422V29.2795V28.8885Z" fill="#181818"/>
<path fill-rule="evenodd" clip-rule="evenodd" d="M188.333 25.3959H188.724V25.01H188.333H187.942V25.3959H188.333Z" fill="#181818"/>
<path fill-rule="evenodd" clip-rule="evenodd" d="M186.007 25.3959H186.398V25.01H186.007H185.616V25.3959H186.007Z" fill="#181818"/>
<path fill-rule="evenodd" clip-rule="evenodd" d="M208.12 26.5629H208.506V26.177H208.12H207.734V26.5629H208.12Z" fill="#181818"/>
<path fill-rule="evenodd" clip-rule="evenodd" d="M191.049 26.1775H191.435V25.7866V25.3956H191.049V25.7866V26.1775Z" fill="#181818"/>
<path fill-rule="evenodd" clip-rule="evenodd" d="M211.999 27.3355H212.385V26.9495V26.5636H211.999V26.9495V27.3355Z" fill="#181818"/>
<path fill-rule="evenodd" clip-rule="evenodd" d="M187.17 25.3959H187.556V25.01H187.17H186.784V25.3959H187.17Z" fill="#181818"/>
<path fill-rule="evenodd" clip-rule="evenodd" d="M211.613 26.5629H211.999V26.177H211.613H211.227V26.5629H211.613Z" fill="#181818"/>
<path fill-rule="evenodd" clip-rule="evenodd" d="M178.829 25.01C177.432 25.01 176.307 26.1351 176.307 27.5318C176.307 28.9285 177.432 30.0536 178.829 30.0536H211.03C212.426 30.0536 213.551 28.9285 213.551 27.5318C213.551 26.1351 212.426 25.01 211.03 25.01H178.829ZM211.03 30.4415H178.829C177.238 30.4415 175.919 29.1225 175.919 27.5318C175.919 25.9412 177.238 24.6221 178.829 24.6221H211.03C212.62 24.6221 213.939 25.9412 213.939 27.5318C213.939 29.1225 212.62 30.4415 211.03 30.4415Z" fill="#050505"/>
<defs>
<radialGradient id="paint0_radial_3_7137" cx="0" cy="0" r="1" gradientUnits="userSpaceOnUse" gradientTransform="translate(230.851 27.1305) rotate(90) scale(3.84 1.5)">
<stop stop-color="#383055"/>
<stop offset="0.49" stop-color="#080311"/>
<stop offset="1" stop-color="#1B3B53"/>
</radialGradient>
</defs>
</svg>
