<svg width="24" height="19" viewBox="0 0 24 19" fill="none" xmlns="http://www.w3.org/2000/svg">
<path fill-rule="evenodd" clip-rule="evenodd" d="M23.1215 2.29529C22.2705 2.66873 21.3637 2.91625 20.4183 3.03644C21.3909 2.45554 22.1332 1.54269 22.4822 0.442438C21.5754 0.98326 20.5742 1.36528 19.5072 1.57846C18.6461 0.661329 17.4189 0.0933169 16.0802 0.0933169C13.4827 0.0933169 11.3916 2.2023 11.3916 4.78772C11.3916 5.15973 11.4231 5.51742 11.5003 5.85794C7.59991 5.66766 4.14859 3.79761 1.83008 0.94892C1.4253 1.65144 1.18787 2.45554 1.18787 3.32117C1.18787 4.94654 2.0246 6.38733 3.27182 7.22147C2.51805 7.20716 1.77859 6.98826 1.15211 6.64344C1.15211 6.65774 1.15211 6.67634 1.15211 6.69494C1.15211 8.97562 2.77837 10.87 4.91095 11.3064C4.52906 11.4108 4.11284 11.4609 3.68089 11.4609C3.38053 11.4609 3.0773 11.4437 2.79267 11.3807C3.40055 13.2393 5.12549 14.6057 7.17655 14.6501C5.58033 15.8992 3.55359 16.6517 1.35952 16.6517C0.974763 16.6517 0.605745 16.6346 0.236727 16.5874C2.31496 17.928 4.77793 18.6935 7.434 18.6935C16.0673 18.6935 20.7873 11.5396 20.7873 5.33857C20.7873 5.13111 20.7802 4.93079 20.7701 4.73189C21.7013 4.07088 22.4837 3.24534 23.1216 2.29528L23.1215 2.29529Z" fill="black"/>
</svg>
